<svg width="292" height="258" viewBox="0 0 292 258" fill="none" xmlns="http://www.w3.org/2000/svg">
<g opacity="0.02">
<path d="M79.125 110.712V102.476L146.409 67.3945L213.693 102.476V142.743H203.994V116.204L146.409 148.235L79.125 110.712ZM91.854 106.747L146.409 137.253L200.964 106.747L146.409 78.3765L91.854 106.747Z" fill="#18C9BF"/>
<path d="M103.375 165V133.885L112.77 139.07V159.204L146.413 178.423L180.054 159.204V139.07L189.451 133.885V165L146.413 189.404L103.375 165Z" fill="#18C9BF"/>
<path fillRule="evenodd" clipRule="evenodd" d="M182.891 232.108L232.292 216.245L232.596 170.182V134.795C232.596 128.389 233.808 121.983 238.355 117.407C242.9 112.831 248.962 110.391 255.629 110.391C249.266 110.391 242.9 107.95 238.355 103.375C233.808 98.7988 231.383 92.3926 231.383 85.6814V24.6701H207.137V0.265625H231.383C237.748 0.265625 244.112 2.70608 248.659 7.28191C253.205 11.8578 255.629 18.2639 255.629 24.6701V73.4791C255.629 79.8852 258.054 86.2915 262.601 90.8673C267.147 95.4431 273.208 97.8836 279.877 97.8836H291.999V122.288H279.877C273.208 122.593 267.147 124.729 262.601 129.304C259.872 132.05 257.449 135.1 255.629 138.456V229.973L182.891 257.123V236.379V232.108Z" fill="#18C9BF"/>
<path fillRule="evenodd" clipRule="evenodd" d="M110.062 236.989V257.733L37.3219 230.584V139.066C35.5036 135.711 32.7763 132.355 30.3515 129.914C25.8059 125.339 20.0472 123.203 13.0756 122.898H0.953125V98.4937H13.0756C19.4408 98.4937 25.8059 96.0533 30.3515 91.4774C34.8984 86.9015 37.3219 80.8004 37.3219 74.0892V24.6701C37.3219 18.2639 39.7466 11.8578 44.2935 7.28191C48.8391 2.70607 55.2043 0.265625 61.5694 0.265625H85.8157V24.6701H61.5694V85.6814C61.5694 92.0875 59.1446 98.4937 54.5978 103.07C50.0521 107.645 43.9909 110.086 37.3219 110.086C43.687 110.086 50.0521 112.526 54.5978 117.102C59.1446 121.678 60.3564 128.084 60.3564 134.491V169.572L60.6603 215.636L110.062 232.108V236.989Z" fill="#18C9BF"/>
</g>
</svg>
