<svg width="24" height="24" viewBox="0 0 24 24" fill="none" xmlns="http://www.w3.org/2000/svg">
<path fillRule="evenodd" clipRule="evenodd" d="M8.98578 20.8049V22.5022L2.99526 20.2808V12.7926C2.8455 12.518 2.62085 12.2434 2.42117 12.0438C2.04676 11.6694 1.57251 11.4946 0.998421 11.4697H0V9.47283H0.998421C1.52259 9.47283 2.04676 9.27315 2.42117 8.89874C2.79558 8.52433 2.99526 8.02512 2.99526 7.47599V3.43239C2.99526 2.90821 3.19494 2.38405 3.56935 2.00964C3.94376 1.63523 4.46793 1.43555 4.9921 1.43555H6.98894V3.43239H4.9921V8.42449C4.9921 8.94865 4.79242 9.47283 4.41801 9.84724C4.0436 10.2216 3.54439 10.4213 2.99526 10.4213C3.51944 10.4213 4.0436 10.621 4.41801 10.9954C4.79242 11.3698 4.89226 11.894 4.89226 12.4182V15.2887L4.91722 19.0577L8.98578 20.4055V20.8049Z" fill="#18C9BF"/>
<path fillRule="evenodd" clipRule="evenodd" d="M14.9766 20.4055L19.0451 19.1075L19.0701 15.3385V12.4431C19.0701 11.9189 19.1699 11.3948 19.5444 11.0204C19.9187 10.646 20.4179 10.4463 20.9671 10.4463C20.4429 10.4463 19.9187 10.2466 19.5444 9.87219C19.1699 9.49779 18.9702 8.97362 18.9702 8.42449V3.43239H16.9734V1.43555H18.9702C19.4944 1.43555 20.0186 1.63523 20.393 2.00964C20.7674 2.38405 20.9671 2.90821 20.9671 3.43239V7.42607C20.9671 7.95023 21.1667 8.47441 21.5412 8.84882C21.9155 9.22322 22.4148 9.42291 22.9639 9.42291H23.9623V11.4198H22.9639C22.4148 11.4447 21.9155 11.6194 21.5412 11.9938C21.3166 12.2185 21.1169 12.4681 20.9671 12.7426V20.2308L14.9766 22.4523V20.7549V20.4055Z" fill="#5552FE"/>
<path d="M8.4375 14.9151V12.3691L9.21127 12.7934V14.4408L11.9818 16.0133L14.7525 14.4408V12.7934L15.5263 12.3691V14.9151L11.9818 16.9119L8.4375 14.9151Z" fill="#18C9BF"/>
<path d="M6.4375 10.4721V9.7982L11.9787 6.92773L17.5199 9.7982V13.093H16.7212V10.9214L11.9787 13.5423L6.4375 10.4721ZM7.48584 10.1476L11.9787 12.6437L16.4716 10.1476L11.9787 7.82631L7.48584 10.1476Z" fill="#5552FE"/>
</svg>
