<svg width="122" height="38" viewBox="0 0 122 38" fill="none" xmlns="http://www.w3.org/2000/svg">
<path d="M12.2086 2.76C12.5019 2.78667 12.6619 2.86667 12.6886 3C12.7153 3.10667 12.5819 3.14667 12.2886 3.12C10.8486 2.98666 9.47526 3.14667 8.16859 3.6C6.86193 4.02666 5.70193 4.61333 4.68859 5.36C3.70193 6.10667 2.91526 6.89333 2.32859 7.72C1.76859 8.54667 1.48859 9.26667 1.48859 9.88C1.48859 11.08 1.95526 11.9733 2.88859 12.56C3.82193 13.1467 5.02193 13.44 6.48859 13.44C7.76859 13.44 9.12859 13.2267 10.5686 12.8C12.0086 12.3467 13.4219 11.7733 14.8086 11.08C16.1953 10.36 17.4486 9.61333 18.5686 8.84C19.6886 8.04 20.5819 7.29333 21.2486 6.6C21.9153 5.90667 22.2486 5.34667 22.2486 4.92C22.2486 4.6 22.1153 4.4 21.8486 4.32C21.6086 4.21333 21.3286 4.16 21.0086 4.16C20.1286 4.16 19.0619 4.46667 17.8086 5.08C16.5553 5.69333 15.2086 6.53333 13.7686 7.6C12.3553 8.64 10.9553 9.8 9.56859 11.08C8.20859 12.36 6.95526 13.68 5.80859 15.04C4.68859 16.3733 3.78193 17.6533 3.08859 18.88C2.42193 20.1067 2.08859 21.1733 2.08859 22.08C2.08859 23.0933 2.39526 23.8267 3.00859 24.28C3.64859 24.7333 4.39526 24.96 5.24859 24.96C6.07526 24.96 6.91526 24.7333 7.76859 24.28C8.64859 23.8267 9.50193 23.24 10.3286 22.52C11.1553 21.8 11.8886 21.0267 12.5286 20.2C13.1953 19.3733 13.7153 18.56 14.0886 17.76C14.4886 16.96 14.6886 16.2667 14.6886 15.68C14.6886 15.1733 14.5419 14.84 14.2486 14.68C13.9819 14.52 13.6619 14.44 13.2886 14.44C12.2486 14.44 11.2219 14.76 10.2086 15.4C9.19526 16.0133 8.27526 16.84 7.44859 17.88C6.62193 18.8933 5.95526 20.0133 5.44859 21.24C4.96859 22.44 4.72859 23.64 4.72859 24.84C4.72859 25.2933 4.80859 25.8133 4.96859 26.4C5.12859 26.9867 5.28859 27.4933 5.44859 27.92C5.60859 28.3733 5.68859 28.6533 5.68859 28.76C5.71526 28.9467 5.68859 29.0933 5.60859 29.2C5.52859 29.3067 5.40859 29.2667 5.24859 29.08C5.08859 28.92 4.88859 28.4667 4.64859 27.72C4.40859 26.9733 4.28859 26.04 4.28859 24.92C4.28859 23.5867 4.52859 22.28 5.00859 21C5.51526 19.72 6.19526 18.56 7.04859 17.52C7.90193 16.4533 8.88859 15.6133 10.0086 15C11.1286 14.36 12.3286 14.04 13.6086 14.04C14.2753 14.04 14.8619 14.2267 15.3686 14.6C15.8753 14.9467 16.1286 15.4667 16.1286 16.16C16.1286 16.9867 15.8486 17.92 15.2886 18.96C14.7553 20 13.9819 21.0133 12.9686 22C11.9819 22.96 10.8086 23.76 9.44859 24.4C8.11526 25.0133 6.66193 25.32 5.08859 25.32C3.70193 25.32 2.67526 24.9333 2.00859 24.16C1.36859 23.36 1.04859 22.4933 1.04859 21.56C1.04859 20.28 1.34193 18.96 1.92859 17.6C2.54193 16.24 3.36859 14.8933 4.40859 13.56C5.44859 12.2267 6.63526 10.9733 7.96859 9.8C9.30193 8.62667 10.7153 7.6 12.2086 6.72C13.7286 5.81333 15.2486 5.10667 16.7686 4.6C18.2886 4.06667 19.7419 3.8 21.1286 3.8C21.4486 3.8 21.7819 3.86667 22.1286 4C22.4753 4.13333 22.6486 4.38667 22.6486 4.76C22.6486 5.50667 22.3019 6.29333 21.6086 7.12C20.9419 7.94667 20.0219 8.76 18.8486 9.56C17.7019 10.3333 16.4219 11.04 15.0086 11.68C13.5953 12.32 12.1419 12.84 10.6486 13.24C9.18193 13.6133 7.78193 13.8 6.44859 13.8C4.71526 13.8 3.34193 13.48 2.32859 12.84C1.34193 12.1733 0.848594 11.0533 0.848594 9.48C0.848594 8.65333 1.18193 7.82667 1.84859 7C2.51526 6.14667 3.39526 5.38667 4.48859 4.72C5.60859 4.05333 6.83526 3.53333 8.16859 3.16C9.52859 2.78667 10.8753 2.65333 12.2086 2.76ZM21.6261 25.36C20.3728 25.36 19.5461 25.08 19.1461 24.52C18.7461 23.9333 18.5461 23.32 18.5461 22.68C18.5461 21.5867 18.8261 20.5733 19.3861 19.64C19.9461 18.68 20.6661 17.8267 21.5461 17.08C22.4261 16.3333 23.3328 15.76 24.2661 15.36C25.2261 14.9333 26.0794 14.72 26.8261 14.72C27.3594 14.72 27.7861 14.8 28.1061 14.96C28.4261 15.0933 28.5861 15.3867 28.5861 15.84C28.5861 16.2667 28.3328 16.72 27.8261 17.2C27.3194 17.68 26.6794 18.1467 25.9061 18.6C25.1328 19.0267 24.3194 19.4267 23.4661 19.8C22.6394 20.1467 21.8794 20.4267 21.1861 20.64C20.4928 20.8533 19.9861 20.96 19.6661 20.96C19.6661 20.96 19.6661 20.8933 19.6661 20.76C19.6661 20.6 19.6661 20.52 19.6661 20.52C19.9061 20.5467 20.3194 20.4667 20.9061 20.28C21.5194 20.0933 22.1994 19.8533 22.9461 19.56C23.6928 19.24 24.4128 18.88 25.1061 18.48C25.8261 18.08 26.4128 17.6533 26.8661 17.2C27.3461 16.7467 27.5861 16.3067 27.5861 15.88C27.5861 15.6667 27.5194 15.48 27.3861 15.32C27.2794 15.16 27.0794 15.08 26.7861 15.08C26.3594 15.08 25.8394 15.2933 25.2261 15.72C24.6394 16.12 24.0394 16.6533 23.4261 17.32C22.8128 17.9867 22.2394 18.6933 21.7061 19.44C21.1728 20.1867 20.7328 20.9067 20.3861 21.6C20.0661 22.2667 19.9061 22.8267 19.9061 23.28C19.9061 23.8133 20.0661 24.2133 20.3861 24.48C20.7061 24.7467 21.1728 24.88 21.7861 24.88C22.8528 24.88 23.8528 24.6267 24.7861 24.12C25.7461 23.5867 26.6128 22.9733 27.3861 22.28C28.1594 21.56 28.8128 20.8933 29.3461 20.28C29.8794 19.64 30.2394 19.2267 30.4261 19.04C30.4261 19.04 30.4661 19.08 30.5461 19.16C30.6528 19.24 30.7061 19.28 30.7061 19.28C30.5194 19.4933 30.1594 19.92 29.6261 20.56C29.0928 21.2 28.4261 21.8933 27.6261 22.64C26.8261 23.3867 25.9194 24.0267 24.9061 24.56C23.8928 25.0933 22.7994 25.36 21.6261 25.36ZM30.332 19.76C30.2254 19.8667 30.1454 19.88 30.092 19.8C30.0387 19.6933 30.0254 19.5867 30.052 19.48C30.5054 19.0267 30.9454 18.4933 31.372 17.88C31.8254 17.2667 32.1987 16.6933 32.492 16.16C32.812 15.6267 32.9987 15.2667 33.052 15.08C33.1054 15.08 33.1854 15.04 33.292 14.96C33.4254 14.88 33.5454 14.8533 33.652 14.88C33.6254 15.0667 33.5854 15.24 33.532 15.4C33.5054 15.56 33.5987 15.7067 33.812 15.84C34.0254 15.9733 34.4654 16.1067 35.132 16.24C35.7987 16.3733 36.812 16.52 38.172 16.68C38.3054 16.7067 38.3987 16.76 38.452 16.84C38.532 16.8933 38.492 16.9867 38.332 17.12C37.8254 17.52 37.2654 18.0267 36.652 18.64C36.0387 19.2533 35.4387 19.9067 34.852 20.6C34.292 21.2667 33.8254 21.92 33.452 22.56C33.1054 23.2 32.932 23.7333 32.932 24.16C32.932 24.64 33.1454 24.88 33.572 24.88C34.1054 24.88 34.7054 24.6667 35.372 24.24C36.0654 23.8133 36.7587 23.2933 37.452 22.68C38.1454 22.04 38.7854 21.4 39.372 20.76C39.9854 20.0933 40.492 19.5467 40.892 19.12L41.212 19.36C40.8387 19.7333 40.3587 20.2533 39.772 20.92C39.1854 21.5867 38.5187 22.2667 37.772 22.96C37.052 23.6267 36.2787 24.2 35.452 24.68C34.6254 25.1333 33.772 25.36 32.892 25.36C32.3854 25.36 31.932 25.24 31.532 25C31.132 24.7867 30.932 24.3867 30.932 23.8C30.932 23.24 31.172 22.6533 31.652 22.04C32.132 21.4267 32.732 20.8133 33.452 20.2C34.172 19.56 34.9187 18.96 35.692 18.4C36.492 17.8133 37.1987 17.28 37.812 16.8L38.092 17.16C37.8254 17.0533 37.3587 16.96 36.692 16.88C36.0254 16.7733 35.332 16.64 34.612 16.48C33.892 16.2933 33.2654 16.0533 32.732 15.76C32.2254 15.4667 31.972 15.0667 31.972 14.56C31.972 14.2933 32.0787 13.9733 32.292 13.6C32.532 13.2 32.852 13 33.252 13C33.6254 13 33.8787 13.08 34.012 13.24C34.1454 13.3733 34.212 13.56 34.212 13.8C34.212 13.96 34.0787 14.2933 33.812 14.8C33.5454 15.28 33.212 15.8533 32.812 16.52C32.412 17.16 31.9854 17.7733 31.532 18.36C31.1054 18.9467 30.7054 19.4133 30.332 19.76ZM48.8798 7.72C49.1198 7.82667 49.4665 7.88 49.9198 7.88C50.3998 7.85333 50.7732 7.81333 51.0398 7.76C50.1865 8.93333 49.2398 10.2267 48.1998 11.64C47.1598 13.0533 46.1065 14.4667 45.0398 15.88C43.9998 17.2667 43.0265 18.5733 42.1198 19.8C41.2398 21 40.5332 22.0133 39.9998 22.84C39.4665 23.6667 39.1998 24.1867 39.1998 24.4C39.1998 24.56 39.2932 24.68 39.4798 24.76C39.6398 24.84 39.8532 24.88 40.1198 24.88C40.7065 24.88 41.3465 24.68 42.0398 24.28C42.7598 23.8533 43.4665 23.3333 44.1598 22.72C44.8798 22.08 45.5332 21.44 46.1198 20.8C46.7332 20.1333 47.2132 19.56 47.5598 19.08L47.8798 19.32C47.5065 19.8 47.0132 20.3733 46.3998 21.04C45.7865 21.7067 45.1065 22.3733 44.3598 23.04C43.6132 23.7067 42.8398 24.2667 42.0398 24.72C41.2665 25.1467 40.5198 25.36 39.7998 25.36C39.2932 25.36 38.8932 25.2533 38.5998 25.04C38.2798 24.8533 38.1198 24.52 38.1198 24.04C38.1198 23.6133 38.3732 22.96 38.8798 22.08C39.3865 21.1733 40.0398 20.1333 40.8398 18.96C41.6665 17.7867 42.5598 16.5467 43.5198 15.24C44.4798 13.9067 45.4265 12.6 46.3598 11.32C47.3198 10.0133 48.1598 8.81333 48.8798 7.72ZM44.4798 12.2C44.2132 12.2 44.0798 12.12 44.0798 11.96C44.0798 11.8267 44.2132 11.76 44.4798 11.76H52.0798C52.1598 11.76 52.2398 11.7733 52.3198 11.8C52.4265 11.8267 52.4798 11.88 52.4798 11.96C52.4798 12.0667 52.4265 12.1333 52.3198 12.16C52.2398 12.1867 52.1598 12.2 52.0798 12.2H44.4798ZM46.6805 25.36C46.3071 25.36 45.8938 25.2533 45.4405 25.04C44.9605 24.8533 44.7205 24.5333 44.7205 24.08C44.7205 23.52 44.9738 22.8133 45.4805 21.96C45.9871 21.1067 46.6138 20.2267 47.3605 19.32C48.0805 18.4133 48.7871 17.56 49.4805 16.76C50.1738 15.96 50.6938 15.3333 51.0405 14.88C51.3338 14.9067 51.6805 14.92 52.0805 14.92C52.5071 14.92 52.8805 14.9067 53.2005 14.88C52.8271 15.3333 52.3338 15.9067 51.7205 16.6C51.1338 17.2933 50.5071 18.04 49.8405 18.84C49.2005 19.6133 48.5738 20.3733 47.9605 21.12C47.3738 21.8667 46.8938 22.5333 46.5205 23.12C46.1471 23.7067 45.9605 24.1333 45.9605 24.4C45.9605 24.5867 46.0405 24.72 46.2005 24.8C46.3605 24.88 46.6271 24.92 47.0005 24.92C47.6405 24.92 48.3471 24.68 49.1205 24.2C49.9205 23.6933 50.6938 23.0933 51.4405 22.4C52.1871 21.7067 52.8538 21.0533 53.4405 20.44C54.0271 19.8 54.4405 19.3333 54.6805 19.04L55.0005 19.32C54.7605 19.5867 54.3471 20.0533 53.7605 20.72C53.2005 21.36 52.5205 22.04 51.7205 22.76C50.9471 23.48 50.1205 24.0933 49.2405 24.6C48.3871 25.1067 47.5338 25.36 46.6805 25.36ZM54.6805 11.84C54.3605 11.84 54.1205 11.7467 53.9605 11.56C53.8005 11.3467 53.7205 11.1067 53.7205 10.84C53.7205 10.5467 53.8805 10.24 54.2005 9.92C54.5205 9.6 54.8538 9.44 55.2005 9.44C55.5738 9.44 55.8405 9.54667 56.0005 9.76C56.1605 9.94667 56.2405 10.1333 56.2405 10.32C56.2405 10.72 56.0805 11.08 55.7605 11.4C55.4405 11.6933 55.0805 11.84 54.6805 11.84ZM46.5889 37.4C46.0822 37.4 45.6822 37.24 45.3889 36.92C45.0956 36.6267 44.9489 36.2267 44.9489 35.72C44.9489 34.84 45.4022 33.6 46.3089 32C47.2156 30.4267 48.4156 28.5333 49.9089 26.32C51.3756 24.1067 52.9756 21.6667 54.7089 19C56.1489 16.7867 57.5622 14.6133 58.9489 12.48C60.3356 10.32 61.6556 8.37333 62.9089 6.64C64.1622 4.90667 65.3089 3.53333 66.3489 2.52C67.3889 1.48 68.2822 0.96 69.0289 0.96C69.9089 0.96 70.3489 1.49333 70.3489 2.56C70.3489 3.41333 70.0689 4.4 69.5089 5.52C68.9756 6.64 68.2556 7.82667 67.3489 9.08C66.4422 10.3067 65.4289 11.5333 64.3089 12.76C63.1889 13.96 62.0422 15.0933 60.8689 16.16C59.7222 17.2267 58.6289 18.1467 57.5889 18.92C56.5756 19.6933 55.6956 20.2533 54.9489 20.6C54.7622 20.68 54.6556 20.64 54.6289 20.48C54.6289 20.2933 54.7222 20.16 54.9089 20.08C55.6022 19.76 56.4289 19.2267 57.3889 18.48C58.3756 17.7067 59.4156 16.8 60.5089 15.76C61.6289 14.6933 62.7222 13.56 63.7889 12.36C64.8822 11.16 65.8689 9.96 66.7489 8.76C67.6289 7.53333 68.3356 6.37333 68.8689 5.28C69.4022 4.16 69.6689 3.18667 69.6689 2.36C69.6689 2.06667 69.6022 1.82667 69.4689 1.64C69.3356 1.42667 69.1622 1.32 68.9489 1.32C68.5222 1.32 67.9089 1.81333 67.1089 2.8C66.3356 3.78667 65.4022 5.14667 64.3089 6.88C63.2156 8.58667 61.9756 10.5467 60.5889 12.76C59.2289 14.9733 57.7356 17.2933 56.1089 19.72C54.9089 21.5067 53.7089 23.3067 52.5089 25.12C51.3089 26.96 50.2156 28.6667 49.2289 30.24C48.2156 31.8133 47.4022 33.1333 46.7889 34.2C46.1756 35.2933 45.8689 35.9867 45.8689 36.28C45.8689 36.5467 45.9622 36.7333 46.1489 36.84C46.3089 36.9467 46.4956 37 46.7089 37C47.1889 37 47.8022 36.6 48.5489 35.8C49.2956 35 50.0556 33.9067 50.8289 32.52C51.5756 31.16 52.2156 29.6133 52.7489 27.88C53.2556 26.1467 53.5089 24.3467 53.5089 22.48C53.5089 22.1867 53.5889 22 53.7489 21.92C53.8822 21.84 53.9489 21.9067 53.9489 22.12C53.9489 24.0933 53.7222 25.9867 53.2689 27.8C52.8156 29.64 52.2289 31.28 51.5089 32.72C50.7622 34.16 49.9622 35.2933 49.1089 36.12C48.2289 36.9733 47.3889 37.4 46.5889 37.4ZM57.3489 22.84C56.4156 22.84 55.6422 22.68 55.0289 22.36C54.4422 22.0133 53.9756 21.6 53.6289 21.12C53.2822 20.64 53.0422 20.16 52.9089 19.68C52.7756 19.1733 52.7089 18.7467 52.7089 18.4C52.7089 18.0533 52.8156 17.7733 53.0289 17.56C53.2156 17.32 53.4422 17.2 53.7089 17.2C54.0556 17.2 54.2822 17.3067 54.3889 17.52C54.4956 17.7333 54.5489 17.92 54.5489 18.08C54.5489 18.4533 54.4022 18.7867 54.1089 19.08C53.7889 19.3733 53.6022 19.5467 53.5489 19.6C53.5489 19.6 53.6022 19.7467 53.7089 20.04C53.7889 20.3333 53.9622 20.6667 54.2289 21.04C54.4956 21.4133 54.8689 21.7467 55.3489 22.04C55.8556 22.3333 56.5222 22.48 57.3489 22.48C58.2022 22.48 58.9622 22.3333 59.6289 22.04C60.3222 21.72 60.9089 21.36 61.3889 20.96C61.8956 20.5333 62.2956 20.1333 62.5889 19.76C62.9089 19.3867 63.1222 19.1467 63.2289 19.04L63.5889 19.28C63.5089 19.3867 63.3089 19.6267 62.9889 20C62.6689 20.3733 62.2422 20.7867 61.7089 21.24C61.1756 21.6667 60.5356 22.04 59.7889 22.36C59.0689 22.68 58.2556 22.84 57.3489 22.84ZM62.3836 25.36C62.0103 25.36 61.5969 25.2533 61.1436 25.04C60.6636 24.8533 60.4236 24.5333 60.4236 24.08C60.4236 23.52 60.6769 22.8133 61.1836 21.96C61.6903 21.1067 62.3169 20.2267 63.0636 19.32C63.7836 18.4133 64.4903 17.56 65.1836 16.76C65.8769 15.96 66.3969 15.3333 66.7436 14.88C67.0369 14.9067 67.3836 14.92 67.7836 14.92C68.2103 14.92 68.5836 14.9067 68.9036 14.88C68.5303 15.3333 68.0369 15.9067 67.4236 16.6C66.8369 17.2933 66.2103 18.04 65.5436 18.84C64.9036 19.6133 64.2769 20.3733 63.6636 21.12C63.0769 21.8667 62.5969 22.5333 62.2236 23.12C61.8503 23.7067 61.6636 24.1333 61.6636 24.4C61.6636 24.5867 61.7436 24.72 61.9036 24.8C62.0636 24.88 62.3303 24.92 62.7036 24.92C63.3436 24.92 64.0503 24.68 64.8236 24.2C65.6236 23.6933 66.3969 23.0933 67.1436 22.4C67.8903 21.7067 68.5569 21.0533 69.1436 20.44C69.7303 19.8 70.1436 19.3333 70.3836 19.04L70.7036 19.32C70.4636 19.5867 70.0503 20.0533 69.4636 20.72C68.9036 21.36 68.2236 22.04 67.4236 22.76C66.6503 23.48 65.8236 24.0933 64.9436 24.6C64.0903 25.1067 63.2369 25.36 62.3836 25.36ZM70.3836 11.84C70.0636 11.84 69.8236 11.7467 69.6636 11.56C69.5036 11.3467 69.4236 11.1067 69.4236 10.84C69.4236 10.5467 69.5836 10.24 69.9036 9.92C70.2236 9.6 70.5569 9.44 70.9036 9.44C71.2769 9.44 71.5436 9.54667 71.7036 9.76C71.8636 9.94667 71.9436 10.1333 71.9436 10.32C71.9436 10.72 71.7836 11.08 71.4636 11.4C71.1436 11.6933 70.7836 11.84 70.3836 11.84ZM78.052 17.84C77.6787 17.84 77.3987 17.76 77.212 17.6C77.052 17.4133 76.972 17.2 76.972 16.96C76.972 16.72 77.0654 16.4933 77.252 16.28C77.4654 16.04 77.7454 15.92 78.092 15.92C78.3054 15.92 78.492 15.9467 78.652 16C78.812 16.0533 78.892 16.08 78.892 16.08C78.9187 15.8133 78.852 15.5867 78.692 15.4C78.532 15.1867 78.2254 15.08 77.772 15.08C77.3454 15.08 76.8254 15.2667 76.212 15.64C75.5987 16.0133 74.9587 16.5067 74.292 17.12C73.652 17.7333 73.0387 18.4 72.452 19.12C71.892 19.84 71.4387 20.5733 71.092 21.32C70.7454 22.04 70.572 22.6933 70.572 23.28C70.572 23.9467 70.7854 24.3867 71.212 24.6C71.6387 24.8133 72.1054 24.92 72.612 24.92C73.572 24.92 74.5187 24.6933 75.452 24.24C76.3854 23.76 77.2387 23.1867 78.012 22.52C78.812 21.8267 79.492 21.16 80.052 20.52C80.612 19.88 81.012 19.3867 81.252 19.04L81.612 19.28C81.3987 19.6 80.9987 20.0933 80.412 20.76C79.8254 21.4267 79.1054 22.12 78.252 22.84C77.4254 23.5333 76.5054 24.1333 75.492 24.64C74.4787 25.12 73.412 25.36 72.292 25.36C71.3854 25.36 70.6254 25.16 70.012 24.76C69.372 24.3333 69.052 23.68 69.052 22.8C69.052 22.0533 69.2654 21.2267 69.692 20.32C70.1187 19.3867 70.7054 18.5067 71.452 17.68C72.2254 16.8267 73.132 16.1333 74.172 15.6C75.2387 15.04 76.412 14.76 77.692 14.76C78.1987 14.76 78.6387 14.8667 79.012 15.08C79.3854 15.2933 79.572 15.6667 79.572 16.2C79.572 16.68 79.3987 17.08 79.052 17.4C78.732 17.6933 78.3987 17.84 78.052 17.84ZM89.9505 18C89.8438 18.2133 89.6838 18.4 89.4705 18.56C89.2838 18.72 89.1371 18.8267 89.0305 18.88C88.9505 18.9067 88.9771 18.8267 89.1105 18.64C89.5905 18.0533 89.8971 17.5067 90.0305 17C90.1905 16.4933 90.1905 16.0933 90.0305 15.8C89.8971 15.48 89.6305 15.32 89.2305 15.32C88.6971 15.32 88.0705 15.5333 87.3505 15.96C86.6305 16.3867 85.8838 16.9467 85.1105 17.64C84.3638 18.3333 83.6571 19.08 82.9905 19.88C82.3505 20.6533 81.8305 21.4133 81.4305 22.16C81.0305 22.88 80.8305 23.5067 80.8305 24.04C80.8305 24.44 80.9105 24.6933 81.0705 24.8C81.2305 24.9067 81.3905 24.96 81.5505 24.96C82.1638 24.96 82.8705 24.68 83.6705 24.12C84.4971 23.5333 85.3371 22.8 86.1905 21.92C87.0438 21.04 87.8571 20.1467 88.6305 19.24C89.4038 18.3067 90.0705 17.4667 90.6305 16.72C91.2171 15.9733 91.6171 15.4667 91.8305 15.2C92.1238 15.3067 92.4705 15.3467 92.8705 15.32C93.2971 15.2933 93.6571 15.2667 93.9505 15.24C93.8971 15.32 93.6171 15.6533 93.1105 16.24C92.6305 16.8267 92.0438 17.5333 91.3505 18.36C90.6838 19.16 90.0038 19.9867 89.3105 20.84C88.6438 21.6933 88.0838 22.44 87.6305 23.08C87.1771 23.72 86.9505 24.1467 86.9505 24.36C86.9505 24.6267 87.0038 24.8 87.1105 24.88C87.2438 24.9333 87.4438 24.96 87.7105 24.96C88.0305 24.9333 88.4971 24.7867 89.1105 24.52C89.7238 24.2267 90.5105 23.6667 91.4705 22.84C92.4305 22.0133 93.5905 20.7867 94.9505 19.16C94.9505 19.16 95.0038 19.2 95.1105 19.28C95.2438 19.36 95.3105 19.4 95.3105 19.4C93.7105 21.2667 92.2305 22.7333 90.8705 23.8C89.5105 24.84 88.2705 25.36 87.1505 25.36C86.5638 25.36 86.1638 25.2667 85.9505 25.08C85.7638 24.8933 85.6705 24.6267 85.6705 24.28C85.6705 24.0133 85.7771 23.6933 85.9905 23.32C86.2305 22.92 86.4971 22.5333 86.7905 22.16C87.0838 21.7867 87.3238 21.4933 87.5105 21.28C87.5105 21.28 87.4838 21.2667 87.4305 21.24C87.3771 21.2133 87.3505 21.2 87.3505 21.2C86.7371 21.9467 86.0838 22.64 85.3905 23.28C84.6971 23.92 84.0038 24.4267 83.3105 24.8C82.6438 25.1733 81.9905 25.36 81.3505 25.36C80.6838 25.36 80.2171 25.2 79.9505 24.88C79.6838 24.5333 79.5505 24.0133 79.5505 23.32C79.5505 22.6533 79.7638 21.8533 80.1905 20.92C80.6171 19.96 81.2305 19.0267 82.0305 18.12C82.8305 17.1867 83.7905 16.4133 84.9105 15.8C86.0571 15.1867 87.3371 14.88 88.7505 14.88C89.4438 14.88 89.9238 15.0133 90.1905 15.28C90.4571 15.52 90.5771 15.8133 90.5505 16.16C90.5238 16.5067 90.4438 16.8533 90.3105 17.2C90.1771 17.5467 90.0571 17.8133 89.9505 18ZM102.981 7.72C103.221 7.82667 103.568 7.88 104.021 7.88C104.501 7.85333 104.875 7.81333 105.141 7.76C104.288 8.93333 103.341 10.2267 102.301 11.64C101.261 13.0533 100.208 14.4667 99.1414 15.88C98.1014 17.2667 97.1281 18.5733 96.2214 19.8C95.3414 21 94.6347 22.0133 94.1014 22.84C93.5681 23.6667 93.3014 24.1867 93.3014 24.4C93.3014 24.56 93.3947 24.68 93.5814 24.76C93.7414 24.84 93.9547 24.88 94.2214 24.88C94.8081 24.88 95.4481 24.68 96.1414 24.28C96.8614 23.8533 97.5681 23.3333 98.2614 22.72C98.9814 22.08 99.6347 21.44 100.221 20.8C100.835 20.1333 101.315 19.56 101.661 19.08L101.981 19.32C101.608 19.8 101.115 20.3733 100.501 21.04C99.8881 21.7067 99.2081 22.3733 98.4614 23.04C97.7147 23.7067 96.9414 24.2667 96.1414 24.72C95.3681 25.1467 94.6214 25.36 93.9014 25.36C93.3947 25.36 92.9947 25.2533 92.7014 25.04C92.3814 24.8533 92.2214 24.52 92.2214 24.04C92.2214 23.6133 92.4747 22.96 92.9814 22.08C93.4881 21.1733 94.1414 20.1333 94.9414 18.96C95.7681 17.7867 96.6614 16.5467 97.6214 15.24C98.5814 13.9067 99.5281 12.6 100.461 11.32C101.421 10.0133 102.261 8.81333 102.981 7.72ZM98.5814 12.2C98.3147 12.2 98.1814 12.12 98.1814 11.96C98.1814 11.8267 98.3147 11.76 98.5814 11.76H106.181C106.261 11.76 106.341 11.7733 106.421 11.8C106.528 11.8267 106.581 11.88 106.581 11.96C106.581 12.0667 106.528 12.1333 106.421 12.16C106.341 12.1867 106.261 12.2 106.181 12.2H98.5814ZM103.462 25.36C102.209 25.36 101.382 25.08 100.982 24.52C100.582 23.9333 100.382 23.32 100.382 22.68C100.382 21.5867 100.662 20.5733 101.222 19.64C101.782 18.68 102.502 17.8267 103.382 17.08C104.262 16.3333 105.169 15.76 106.102 15.36C107.062 14.9333 107.915 14.72 108.662 14.72C109.195 14.72 109.622 14.8 109.942 14.96C110.262 15.0933 110.422 15.3867 110.422 15.84C110.422 16.2667 110.169 16.72 109.662 17.2C109.155 17.68 108.515 18.1467 107.742 18.6C106.969 19.0267 106.155 19.4267 105.302 19.8C104.475 20.1467 103.715 20.4267 103.022 20.64C102.329 20.8533 101.822 20.96 101.502 20.96C101.502 20.96 101.502 20.8933 101.502 20.76C101.502 20.6 101.502 20.52 101.502 20.52C101.742 20.5467 102.155 20.4667 102.742 20.28C103.355 20.0933 104.035 19.8533 104.782 19.56C105.529 19.24 106.249 18.88 106.942 18.48C107.662 18.08 108.249 17.6533 108.702 17.2C109.182 16.7467 109.422 16.3067 109.422 15.88C109.422 15.6667 109.355 15.48 109.222 15.32C109.115 15.16 108.915 15.08 108.622 15.08C108.195 15.08 107.675 15.2933 107.062 15.72C106.475 16.12 105.875 16.6533 105.262 17.32C104.649 17.9867 104.075 18.6933 103.542 19.44C103.009 20.1867 102.569 20.9067 102.222 21.6C101.902 22.2667 101.742 22.8267 101.742 23.28C101.742 23.8133 101.902 24.2133 102.222 24.48C102.542 24.7467 103.009 24.88 103.622 24.88C104.689 24.88 105.689 24.6267 106.622 24.12C107.582 23.5867 108.449 22.9733 109.222 22.28C109.995 21.56 110.649 20.8933 111.182 20.28C111.715 19.64 112.075 19.2267 112.262 19.04C112.262 19.04 112.302 19.08 112.382 19.16C112.489 19.24 112.542 19.28 112.542 19.28C112.355 19.4933 111.995 19.92 111.462 20.56C110.929 21.2 110.262 21.8933 109.462 22.64C108.662 23.3867 107.755 24.0267 106.742 24.56C105.729 25.0933 104.635 25.36 103.462 25.36ZM110.888 25.92C109.955 25.92 109.248 25.7467 108.768 25.4C108.288 25.0533 108.048 24.5867 108.048 24C108.048 23.5733 108.195 23.2 108.488 22.88C108.755 22.5333 109.075 22.2667 109.448 22.08C109.821 21.8667 110.115 21.76 110.328 21.76C110.621 21.76 110.821 21.8267 110.928 21.96C111.008 22.0667 111.048 22.1867 111.048 22.32C111.048 22.5333 110.928 22.7067 110.688 22.84C110.421 22.9733 110.208 23.04 110.048 23.04C109.861 23.04 109.701 22.9867 109.568 22.88C109.408 22.7467 109.328 22.68 109.328 22.68C109.195 22.7067 109.008 22.8533 108.768 23.12C108.528 23.3867 108.408 23.68 108.408 24C108.408 24.32 108.581 24.6267 108.928 24.92C109.275 25.2133 109.835 25.36 110.608 25.36C111.408 25.36 112.168 25.0933 112.888 24.56C113.635 24.0267 114.248 23.3467 114.728 22.52C115.208 21.6933 115.448 20.8533 115.448 20C115.448 19.7067 115.448 19.32 115.448 18.84C115.448 18.3333 115.448 17.92 115.448 17.6C115.448 17.2 115.515 16.7467 115.648 16.24C115.781 15.7067 115.928 15.2133 116.088 14.76C116.275 14.3067 116.421 14.0267 116.528 13.92C116.741 13.7333 116.901 13.68 117.008 13.76C117.115 13.84 117.141 13.92 117.088 14C117.061 14.0267 116.888 14.24 116.568 14.64C116.248 15.0133 115.848 15.48 115.368 16.04C114.888 16.6 114.408 17.16 113.928 17.72C113.448 18.28 113.021 18.7733 112.648 19.2C112.301 19.6267 112.101 19.88 112.048 19.96C111.915 20.1467 111.795 20.1867 111.688 20.08C111.581 19.9733 111.608 19.84 111.768 19.68C112.061 19.3067 112.421 18.8667 112.848 18.36C113.301 17.8267 113.755 17.3067 114.208 16.8C114.661 16.2933 115.048 15.8667 115.368 15.52C115.715 15.1467 115.901 14.9333 115.928 14.88C116.008 14.7733 116.075 14.5867 116.128 14.32C116.208 14.0533 116.301 13.8 116.408 13.56C116.541 13.32 116.701 13.2 116.888 13.2C117.341 13.2 117.568 13.36 117.568 13.68C117.568 13.92 117.381 14.2133 117.008 14.56C116.661 14.9067 116.461 15.1867 116.408 15.4C116.328 15.72 116.328 16.1733 116.408 16.76C116.515 17.32 116.621 17.96 116.728 18.68C116.861 19.4 116.928 20.16 116.928 20.96C116.928 22.0267 116.715 22.8933 116.288 23.56C115.861 24.2 115.328 24.6933 114.688 25.04C114.048 25.3867 113.381 25.6133 112.688 25.72C112.021 25.8533 111.421 25.92 110.888 25.92ZM117.048 23.16C116.355 23.16 115.901 23.0267 115.688 22.76C115.501 22.4933 115.435 22.1867 115.488 21.84C115.568 21.4667 115.661 21.1333 115.768 20.84L116.168 20.88C116.088 21.1467 116.008 21.4267 115.928 21.72C115.875 22.0133 115.915 22.2667 116.048 22.48C116.181 22.6933 116.528 22.8 117.088 22.8C117.488 22.8 117.941 22.6133 118.448 22.24C118.955 21.8667 119.448 21.4133 119.928 20.88C120.435 20.3467 120.861 19.8267 121.208 19.32L121.568 19.6C121.221 20.0267 120.795 20.52 120.288 21.08C119.808 21.64 119.288 22.1333 118.728 22.56C118.168 22.96 117.608 23.16 117.048 23.16Z" fill="#FFDB78"/>
</svg>
