<svg width="116" height="116" viewBox="0 0 116 116" fill="none" xmlns="http://www.w3.org/2000/svg">
<path d="M101.427 57.9723C101.427 81.9967 81.9518 101.472 57.9274 101.472C33.903 101.472 14.4274 81.9967 14.4274 57.9723C14.4274 33.9479 33.903 14.4723 57.9274 14.4723C81.9518 14.4723 101.427 33.9479 101.427 57.9723Z" fill="#18C9BF" stroke="#4946FF" stroke-width="24"/>
<path d="M68.1506 102.256C67.7708 101.266 67.587 100.294 67.5992 99.3397C67.6113 98.3853 67.8015 97.4946 68.1697 96.6678C68.5378 95.841 69.0787 95.1014 69.7924 94.449C70.506 93.7967 71.3763 93.2734 72.4033 92.8793L77.5474 90.9049L82.7287 104.405L77.5846 106.379C76.5576 106.773 75.5595 106.964 74.5903 106.95C73.6234 106.943 72.7266 106.755 71.8998 106.387C71.0753 106.025 70.3393 105.493 69.6917 104.792C69.0442 104.091 68.5305 103.245 68.1506 102.256ZM70.7274 101.267C71.0116 102.007 71.3656 102.632 71.7893 103.141C72.2092 103.658 72.6835 104.047 73.2122 104.308C73.7371 104.578 74.3059 104.72 74.9185 104.735C75.5249 104.752 76.158 104.634 76.8178 104.381L79.4412 103.374L75.7935 93.8703L73.1701 94.8772C72.5103 95.1304 71.9609 95.4662 71.5216 95.8847C71.0762 96.3056 70.7475 96.7888 70.5356 97.3343C70.3198 97.8884 70.2277 98.495 70.2593 99.1541C70.2871 99.8219 70.4431 100.526 70.7274 101.267Z" fill="white"/>
<path d="M58.4134 102.083C58.4294 102.403 58.4911 102.7 58.5984 102.975C58.6993 103.257 58.845 103.5 59.0355 103.704C59.2259 103.908 59.464 104.063 59.7497 104.169C60.029 104.282 60.3518 104.329 60.718 104.31C61.4304 104.275 61.9828 104.043 62.3753 103.616C62.761 103.19 62.9918 102.601 63.0675 101.849L58.4134 102.083ZM63.0428 100.359C62.9764 99.8348 62.8603 99.3834 62.6944 99.0046C62.5289 98.6324 62.3199 98.3258 62.0675 98.0849C61.8154 97.8505 61.5231 97.6783 61.1905 97.5682C60.8516 97.4651 60.4824 97.4235 60.0829 97.4436C59.6834 97.4636 59.3428 97.5275 59.0612 97.6351C58.7729 97.743 58.5251 97.8589 58.3177 97.9828C58.1036 98.107 57.9191 98.2197 57.7639 98.321C57.6022 98.4225 57.4447 98.4772 57.2916 98.4849C57.0852 98.4952 56.9282 98.4263 56.8206 98.2782L56.0664 97.4149C56.3233 97.0816 56.6161 96.7966 56.9446 96.5598C57.2735 96.3297 57.621 96.1387 57.9872 95.9868C58.347 95.8419 58.7187 95.7332 59.1022 95.6605C59.4791 95.5882 59.8473 95.543 60.2068 95.5249C60.9192 95.4892 61.5876 95.5724 62.2119 95.7747C62.8365 95.9837 63.3867 96.3065 63.8625 96.7432C64.3387 97.1865 64.7236 97.7412 65.0174 98.4074C65.3115 99.0801 65.4811 99.8659 65.5262 100.765C65.5613 101.464 65.4811 102.125 65.2855 102.749C65.0902 103.38 64.7941 103.932 64.3974 104.406C63.9943 104.887 63.4965 105.276 62.904 105.572C62.3048 105.869 61.6224 106.037 60.8567 106.076C60.2108 106.108 59.6097 106.035 59.0534 105.856C58.497 105.677 58.0124 105.397 57.5995 105.018C57.187 104.645 56.8563 104.174 56.6075 103.606C56.3523 103.044 56.2062 102.394 56.1691 101.655C56.1504 101.282 56.1776 101.027 56.2509 100.89C56.3244 100.76 56.4744 100.689 56.7008 100.677L63.0428 100.359Z" fill="white"/>
<path d="M46.357 102.595C46.4439 102.504 46.5279 102.443 46.6092 102.412C46.6891 102.388 46.7846 102.387 46.8955 102.41C47.0131 102.434 47.1336 102.493 47.2572 102.587C47.3743 102.679 47.5129 102.783 47.673 102.897C47.8317 103.019 48.0186 103.136 48.2336 103.248C48.4421 103.359 48.6998 103.446 49.0066 103.51C49.4832 103.608 49.8796 103.585 50.1956 103.439C50.5051 103.292 50.6936 103.055 50.761 102.729C50.8055 102.513 50.7747 102.316 50.6687 102.138C50.5547 101.964 50.3949 101.799 50.1894 101.64C49.9773 101.481 49.7338 101.325 49.4588 101.173C49.1826 101.027 48.9051 100.871 48.6264 100.705C48.3411 100.537 48.0657 100.354 47.8003 100.156C47.5334 99.9651 47.3074 99.7414 47.122 99.4853C46.9288 99.2343 46.7933 98.951 46.7156 98.6354C46.6313 98.3185 46.631 97.9576 46.7146 97.5528C46.8144 97.0697 46.995 96.6407 47.2562 96.2658C47.5096 95.8961 47.8371 95.5962 48.2386 95.366C48.6388 95.1423 49.1078 94.9976 49.6456 94.9317C50.1755 94.871 50.7669 94.9081 51.4198 95.043C51.7658 95.1145 52.0986 95.2173 52.418 95.3514C52.7323 95.4776 53.0314 95.6279 53.3154 95.8023C53.5928 95.9753 53.8465 96.1639 54.0766 96.368C54.3002 96.5708 54.4918 96.7805 54.6512 96.9973L53.9028 97.8025C53.808 97.8986 53.7056 97.966 53.5956 98.0045C53.4855 98.043 53.3554 98.0468 53.2052 98.0158C53.055 97.9847 52.9234 97.9133 52.8104 97.8014C52.6908 97.6882 52.553 97.5645 52.397 97.4301C52.2409 97.2958 52.0542 97.1619 51.8367 97.0284C51.6126 96.8936 51.3178 96.7885 50.9522 96.7129C50.665 96.6536 50.4134 96.6356 50.1975 96.6591C49.9737 96.6877 49.7851 96.7441 49.6316 96.8281C49.4716 96.9107 49.3473 97.0178 49.2589 97.1493C49.1626 97.286 49.0982 97.4327 49.0659 97.5894C49.0173 97.8244 49.0493 98.0318 49.1619 98.2117C49.268 98.3902 49.4271 98.5592 49.6392 98.7187C49.8448 98.8769 50.0889 99.0295 50.3717 99.1764C50.6466 99.3285 50.93 99.4892 51.2218 99.6584C51.5071 99.8263 51.7857 100.01 52.0577 100.209C52.3218 100.413 52.5491 100.647 52.7396 100.911C52.9236 101.174 53.0551 101.477 53.1339 101.82C53.2063 102.162 53.1966 102.555 53.1049 102.999C53.0199 103.41 52.8574 103.785 52.6172 104.123C52.3771 104.462 52.0721 104.735 51.702 104.945C51.3241 105.16 50.8833 105.3 50.3795 105.366C49.8678 105.437 49.3018 105.409 48.6816 105.281C47.9896 105.138 47.3831 104.893 46.8623 104.547C46.3416 104.202 45.9303 103.803 45.6285 103.353L46.357 102.595Z" fill="white"/>
<path d="M38.9008 102.089L42.9328 92.6549L45.2133 93.6295L41.1812 103.064L38.9008 102.089ZM37.4131 104.705C37.4969 104.509 37.6154 104.342 37.7684 104.205C37.9215 104.067 38.0929 103.963 38.2828 103.892C38.4666 103.818 38.6644 103.779 38.8762 103.775C39.0854 103.778 39.2912 103.822 39.4935 103.909C39.6896 103.993 39.8609 104.109 40.0072 104.259C40.1448 104.412 40.2505 104.58 40.3242 104.764C40.3979 104.948 40.4379 105.142 40.4443 105.348C40.4445 105.551 40.4027 105.751 40.3188 105.947C40.2324 106.149 40.1144 106.324 39.9648 106.47C39.8092 106.614 39.6395 106.722 39.4557 106.796C39.2719 106.87 39.0785 106.907 38.8754 106.907C38.6636 106.911 38.4596 106.871 38.2634 106.787C38.0611 106.7 37.8881 106.579 37.7444 106.424C37.5981 106.274 37.488 106.107 37.4143 105.924C37.3345 105.737 37.2927 105.538 37.289 105.326C37.2852 105.115 37.3266 104.908 37.4131 104.705Z" fill="white"/>
<path d="M33.7721 93.7595C33.5228 93.5809 33.2827 93.4581 33.0519 93.3912C32.8171 93.3296 32.5975 93.3158 32.3928 93.3496C32.1828 93.3796 31.9877 93.4572 31.8078 93.5825C31.6224 93.7039 31.4579 93.8649 31.3142 94.0654C31.0192 94.4773 30.9109 94.8918 30.9894 95.3088C31.0586 95.7274 31.3398 96.1134 31.833 96.4666C32.3262 96.8199 32.7848 96.9639 33.2088 96.8986C33.6235 96.8348 33.9784 96.597 34.2734 96.1851C34.4132 95.99 34.5134 95.7871 34.5741 95.5764C34.6294 95.3618 34.6421 95.1494 34.6122 94.9394C34.5729 94.7308 34.4864 94.5254 34.3526 94.3229C34.2095 94.122 34.016 93.9342 33.7721 93.7595ZM34.9048 87.3871C34.7883 87.5497 34.742 87.7175 34.7658 87.8903C34.7895 88.0632 34.866 88.2369 34.9952 88.4114C35.1205 88.5914 35.2873 88.7764 35.4955 88.9666C35.6983 89.1528 35.9232 89.3426 36.1702 89.5359C36.4078 89.7308 36.6583 89.9307 36.9215 90.1356C37.1793 90.3367 37.4239 90.5447 37.6553 90.7597C37.9668 90.7942 38.2532 90.7779 38.5145 90.7108C38.7703 90.6399 38.9778 90.4933 39.137 90.2711C39.2418 90.1248 39.3036 89.964 39.3225 89.7889C39.3397 89.6045 39.3028 89.4099 39.2116 89.2052C39.115 88.9966 38.9568 88.7767 38.7371 88.5454C38.5212 88.3088 38.2289 88.0585 37.8604 87.7945C37.4864 87.5266 37.1426 87.3254 36.8289 87.1909C36.5191 87.051 36.2406 86.9704 35.9934 86.9492C35.7447 86.9186 35.5292 86.9447 35.347 87.0274C35.1686 87.1046 35.0212 87.2245 34.9048 87.3871ZM26.8662 94.385L27.4019 93.6371C27.5727 93.3986 27.8212 93.3551 28.1472 93.5067L28.9942 93.9042C29.0861 93.5355 29.2544 93.1804 29.4989 92.8389C29.794 92.427 30.1458 92.1132 30.5546 91.8976C30.954 91.6834 31.3835 91.5646 31.8431 91.5412C32.3027 91.5178 32.7796 91.5847 33.2738 91.7419C33.7587 91.9007 34.2315 92.145 34.6922 92.475C34.8548 92.5915 35.0061 92.7122 35.1462 92.8372C35.2864 92.9621 35.4199 93.0906 35.5468 93.2225C35.9195 93.2516 36.1758 93.1687 36.3155 92.9736C36.4359 92.8056 36.4493 92.6266 36.3558 92.4366C36.2529 92.2481 36.0858 92.0464 35.8544 91.8314C35.6229 91.6164 35.3485 91.387 35.0311 91.1433C34.7098 90.9049 34.3881 90.6499 34.0661 90.3782C33.7441 90.1066 33.4457 89.819 33.171 89.5156C32.8924 89.2177 32.6781 88.9043 32.5282 88.5755C32.3783 88.2467 32.3187 87.9006 32.3494 87.5372C32.3708 87.1753 32.5232 86.7965 32.8066 86.4009C33.0706 86.0323 33.419 85.7406 33.8517 85.5258C34.279 85.307 34.7632 85.1864 35.3041 85.1639C35.8397 85.1374 36.4177 85.2235 37.0382 85.4219C37.6572 85.6111 38.2864 85.9347 38.9259 86.3928C39.5546 86.8431 40.0574 87.2975 40.4342 87.7561C40.8149 88.2092 41.0859 88.6493 41.2473 89.0766C41.4126 89.4984 41.476 89.8964 41.4375 90.2707C41.399 90.6449 41.2769 90.9757 41.0712 91.2629C40.7917 91.6532 40.4422 91.8949 40.0228 91.9881C39.5941 92.0828 39.1175 92.0613 38.5931 91.9234C38.7337 92.1964 38.8012 92.4743 38.7954 92.7572C38.7896 93.04 38.676 93.3359 38.4547 93.6448C38.3655 93.7695 38.2525 93.8813 38.116 93.9804C37.9702 94.0809 37.8073 94.1652 37.6274 94.2331C37.4421 94.2972 37.241 94.3376 37.0239 94.3544C36.803 94.3766 36.5675 94.3677 36.3172 94.3279C36.5769 94.8583 36.6928 95.4005 36.6649 95.9546C36.6316 96.5048 36.4325 97.0346 36.0676 97.5441C35.7726 97.956 35.4253 98.269 35.0259 98.4831C34.6172 98.6988 34.1831 98.8184 33.7235 98.8418C33.2546 98.8667 32.775 98.7979 32.2846 98.6353C31.7888 98.4687 31.3025 98.2147 30.8256 97.873C30.4679 97.6168 30.159 97.3382 29.899 97.0372C29.6351 96.7415 29.4236 96.4301 29.2644 96.1028L26.8662 94.385Z" fill="white"/>
<path d="M23.1838 89.4379C22.8933 89.405 22.6097 89.3539 22.3329 89.2846C22.0468 89.2143 21.7778 89.1174 21.5261 88.994C21.265 88.8696 21.0171 88.7134 20.7821 88.5255C20.542 88.3418 20.3139 88.1144 20.098 87.8432C19.749 87.4052 19.5152 86.9565 19.3964 86.4971C19.2724 86.0418 19.2567 85.5941 19.3492 85.1539C19.4324 84.7126 19.616 84.2851 19.9001 83.8713C20.1747 83.4564 20.5363 83.0704 20.9847 82.7132L26.0923 78.6445L27.6313 80.5765L22.5237 84.6451C22.0336 85.0356 21.7448 85.4488 21.6575 85.8849C21.565 86.3251 21.7015 86.7747 22.067 87.2335C22.3329 87.5673 22.6577 87.8199 23.0415 87.9914C23.4254 88.163 23.8515 88.2753 24.3199 88.3283L30.1236 83.7051L31.6625 85.6371L23.6375 92.0298L22.6967 90.8487C22.4973 90.5984 22.4838 90.3407 22.6561 90.0756L23.1838 89.4379Z" fill="white"/>
<path d="M15.0049 70.3957C15.4523 70.8478 15.9164 71.1502 16.3972 71.3027C16.8701 71.4501 17.3514 71.4732 17.8411 71.372C18.2002 71.2978 18.5105 71.169 18.7722 70.9856C19.0338 70.8022 19.2442 70.5851 19.4035 70.3344C19.5548 70.0785 19.657 69.7987 19.71 69.495C19.7551 69.1862 19.7446 68.8718 19.6785 68.5519C19.5598 67.9773 19.363 67.47 19.0883 67.0298C18.807 66.591 18.4666 66.212 18.0671 65.8929L15.0049 70.3957ZM19.6765 59.597L20.1661 61.967C20.2174 62.2151 20.2298 62.4235 20.2034 62.5924C20.1757 62.7547 20.0847 62.9403 19.9305 63.1491L19.1241 64.3369C19.7615 64.8519 20.3034 65.4649 20.7499 66.1759C21.1963 66.887 21.5119 67.6897 21.6967 68.5842C21.8087 69.126 21.8279 69.6803 21.7544 70.2469C21.673 70.8083 21.4985 71.3311 21.2309 71.8152C20.9633 72.2994 20.6078 72.7201 20.1642 73.0772C19.7127 73.4292 19.1736 73.6699 18.5469 73.7994C18.1029 73.8911 17.6702 73.9056 17.2488 73.8429C16.8209 73.7816 16.4109 73.6587 16.0188 73.4742C15.6267 73.2897 15.2603 73.0489 14.9198 72.7516C14.5728 72.4557 14.2581 72.1191 13.976 71.7417C13.5591 72.1955 13.1351 72.5486 12.704 72.801C12.2663 73.0548 11.8157 73.2296 11.3521 73.3254C10.8625 73.4266 10.3807 73.4342 9.90687 73.3483C9.42514 73.2572 8.98598 73.0757 8.5894 72.8036C8.19281 72.5316 7.84859 72.167 7.55674 71.71C7.25835 71.2543 7.04441 70.713 6.91491 70.0863C6.7962 69.5117 6.77845 68.981 6.86164 68.4941C6.94349 68.0007 7.09827 67.5636 7.32596 67.183C7.55231 66.7959 7.83593 66.4718 8.17682 66.2107C8.51637 65.9432 8.88517 65.7512 9.2832 65.635L9.92406 67.1057C10.0422 67.3808 9.96129 67.6154 9.68142 67.8094C9.52381 67.9032 9.38005 68.0146 9.25012 68.1435C9.11232 68.2673 9.00141 68.406 8.9174 68.5595C8.82686 68.7143 8.76716 68.8866 8.73829 69.0764C8.7029 69.2675 8.70881 69.4773 8.75602 69.7058C8.81268 69.9801 8.91223 70.2148 9.05468 70.41C9.1906 70.6065 9.35568 70.763 9.54992 70.8795C9.73629 70.9907 9.94529 71.0633 10.1769 71.0971C10.402 71.1323 10.6321 71.1256 10.8671 71.077C11.063 71.0366 11.2483 70.9779 11.423 70.9009C11.5977 70.824 11.767 70.7209 11.931 70.5917C12.0949 70.4626 12.2599 70.3059 12.4261 70.1218C12.5844 69.9325 12.7523 69.7072 12.9298 69.4459L16.0602 64.878C15.6044 64.7475 15.1345 64.6642 14.6505 64.6281C14.1665 64.5919 13.6854 64.6028 13.2073 64.6608C13.0531 64.6722 12.9215 64.645 12.8125 64.579C12.7036 64.513 12.6336 64.4049 12.6026 64.2547L12.291 62.7466C13.1541 62.5751 14.0024 62.5291 14.8357 62.6088C15.6691 62.6885 16.462 62.8855 17.2145 63.1997L19.6765 59.597Z" fill="white"/>
<path d="M16.8665 38.4867C17.8772 38.8063 18.752 39.2682 19.4909 39.8724C20.2297 40.4766 20.8078 41.1803 21.2251 41.9835C21.6423 42.7867 21.8837 43.6706 21.9493 44.6352C22.0148 45.5999 21.8817 46.6066 21.5501 47.6554L19.8888 52.909L6.1017 48.5493L7.76298 43.2957C8.09463 42.2469 8.56776 41.3477 9.18236 40.5981C9.7906 39.8465 10.4963 39.2621 11.2995 38.8449C12.0963 38.4256 12.9707 38.1812 13.9226 38.1116C14.8746 38.0421 15.8559 38.1671 16.8665 38.4867ZM16.0344 41.1182C15.278 40.879 14.5689 40.7667 13.907 40.7811C13.2409 40.7872 12.6409 40.9157 12.1071 41.1664C11.569 41.4088 11.1033 41.7649 10.71 42.2349C10.3186 42.6985 10.0165 43.2671 9.80339 43.9409L8.95617 46.6202L18.6625 49.6895L19.5097 47.0102C19.7227 46.3364 19.8024 45.6974 19.7488 45.0931C19.6972 44.4825 19.5241 43.9243 19.2295 43.4186C18.9306 42.9046 18.5135 42.4546 17.9783 42.0686C17.4388 41.6742 16.7908 41.3574 16.0344 41.1182Z" fill="white"/>
<path d="M22.984 31.0343C22.7238 30.848 22.4528 30.7112 22.1708 30.624C21.8873 30.5276 21.6064 30.4904 21.3282 30.5125C21.0499 30.5346 20.7805 30.6245 20.5199 30.7823C20.2577 30.9307 20.0199 31.154 19.8064 31.4521C19.391 32.032 19.2283 32.6083 19.3182 33.1812C19.4119 33.7486 19.7293 34.2958 20.2704 34.8227L22.984 31.0343ZM21.4525 35.731C21.904 36.0052 22.3296 36.1952 22.7293 36.3012C23.1237 36.4032 23.4937 36.4304 23.8394 36.3829C24.1797 36.3314 24.4964 36.2098 24.7896 36.0179C25.0813 35.8168 25.3436 35.5537 25.5765 35.2285C25.8095 34.9033 25.9715 34.597 26.0625 34.3096C26.1574 34.0168 26.221 33.7507 26.2531 33.5113C26.289 33.2664 26.3157 33.0518 26.333 32.8674C26.3541 32.6775 26.4094 32.5203 26.4987 32.3956C26.619 32.2276 26.7706 32.1476 26.9535 32.1556L28.0986 32.1025C28.1996 32.511 28.2405 32.9176 28.2214 33.3221C28.1968 33.7227 28.13 34.1136 28.021 34.4948C27.9105 34.8666 27.7643 35.2252 27.5825 35.5706C27.4046 35.9106 27.2108 36.2269 27.0012 36.5196C26.5858 37.0995 26.1046 37.5708 25.5578 37.9336C25.0055 38.2924 24.4104 38.5222 23.7725 38.6229C23.1291 38.7197 22.4553 38.6757 21.7511 38.4911C21.0415 38.3026 20.3208 37.9463 19.5892 37.4222C19.0201 37.0146 18.5522 36.5401 18.1856 35.9987C17.8136 35.4533 17.5656 34.878 17.4416 34.2725C17.3161 33.6578 17.3216 33.0262 17.4581 32.3777C17.5985 31.7238 17.8919 31.0853 18.3383 30.462C18.7149 29.9363 19.1464 29.5114 19.6327 29.1873C20.1191 28.8632 20.6394 28.6578 21.1936 28.571C21.7424 28.4802 22.3166 28.5143 22.9162 28.6732C23.5143 28.8228 24.1142 29.1131 24.7158 29.544C25.0193 29.7614 25.2019 29.9415 25.2637 30.0841C25.3201 30.2229 25.2823 30.3845 25.1503 30.5687L21.4525 35.731Z" fill="white"/>
<path d="M31.0333 17.9381L34.3194 28.4753L32.5776 29.8837L22.9617 24.4645L24.548 23.1819C24.6932 23.0645 24.8397 23.0018 24.9875 22.9938C25.1405 22.9815 25.2744 23.0146 25.3894 23.0932L30.3746 26.1095C30.6587 26.2913 30.9283 26.4762 31.1833 26.6644C31.4384 26.8526 31.6856 27.047 31.9251 27.2478C31.7841 26.9674 31.6483 26.6828 31.5177 26.394C31.3871 26.1053 31.2653 25.8009 31.1522 25.4808L29.2774 19.9494C29.2298 19.8164 29.2255 19.6784 29.2643 19.5356C29.3031 19.3928 29.3873 19.2689 29.5169 19.1642L31.0333 17.9381Z" fill="white"/>
<path d="M41.6957 16.9407C41.5677 16.6474 41.405 16.3911 41.2075 16.1718C41.0134 15.9437 40.7913 15.7679 40.541 15.6443C40.2907 15.5207 40.0133 15.4599 39.7086 15.4619C39.4074 15.4551 39.0888 15.525 38.7527 15.6716C38.0989 15.9568 37.6639 16.3684 37.4476 16.9064C37.2375 17.4418 37.2297 18.0743 37.4244 18.804L41.6957 16.9407ZM37.9743 20.1897C38.2216 20.6564 38.4897 21.0377 38.7787 21.3335C39.0651 21.6231 39.3689 21.8361 39.6902 21.9723C40.0088 22.1025 40.3432 22.1603 40.6932 22.1457C41.0467 22.1225 41.4068 22.0308 41.7734 21.8709C42.1401 21.711 42.4361 21.5309 42.6615 21.3308C42.8931 21.1279 43.084 20.9319 43.2342 20.7427C43.3905 20.5509 43.5234 20.3802 43.6327 20.2307C43.7481 20.0785 43.8761 19.9717 44.0167 19.9104C44.2061 19.8278 44.3773 19.8368 44.5303 19.9373L45.5409 20.4784C45.4183 20.881 45.2452 21.2511 45.0215 21.5887C44.7952 21.9201 44.5376 22.2216 44.2487 22.4931C43.9633 22.7558 43.654 22.9889 43.3209 23.1924C42.9939 23.3932 42.6655 23.5656 42.3355 23.7096C41.6817 23.9948 41.027 24.1531 40.3715 24.1844C39.7134 24.2097 39.0846 24.1021 38.4852 23.8618C37.8831 23.6153 37.3269 23.2324 36.8167 22.7131C36.3038 22.1876 35.8675 21.5124 35.5076 20.6875C35.2277 20.0459 35.069 19.3987 35.0316 18.7459C34.9914 18.087 35.0732 17.4658 35.2769 16.8824C35.4841 16.2901 35.8124 15.7505 36.2618 15.2635C36.7173 14.7739 37.2965 14.3758 37.9992 14.0692C38.5919 13.8107 39.1801 13.6668 39.7638 13.6377C40.3475 13.6085 40.8996 13.6986 41.4201 13.908C41.9379 14.1112 42.4135 14.4347 42.8471 14.8783C43.2841 15.3132 43.6505 15.8698 43.9464 16.5481C44.0957 16.8903 44.1603 17.1385 44.1403 17.2926C44.1176 17.4407 44.0024 17.5601 43.7946 17.6507L37.9743 20.1897Z" fill="white"/>
<path d="M47.7374 6.32261L50.5773 20.9087L48.1528 21.3808L45.3129 6.79465L47.7374 6.32261Z" fill="white"/>
<path d="M58.6798 9.77426C59.4393 9.80065 60.1246 9.94787 60.7357 10.2159C61.3534 10.4842 61.8743 10.8525 62.2983 11.3209C62.7289 11.7894 63.0528 12.3543 63.27 13.0156C63.4872 13.6769 63.5817 14.4106 63.5537 15.2168C63.5255 16.0296 63.3801 16.7584 63.1175 17.403C62.855 18.0476 62.4925 18.592 62.0302 19.0362C61.5744 19.4806 61.0292 19.8152 60.3943 20.04C59.7661 20.265 59.0723 20.3643 58.3127 20.3379C57.5465 20.3113 56.8545 20.1638 56.2368 19.8955C55.6191 19.6272 55.095 19.2555 54.6646 18.7802C54.2408 18.3052 53.9171 17.737 53.6932 17.0755C53.4761 16.4142 53.3816 15.6772 53.4098 14.8643C53.4379 14.0581 53.5831 13.3327 53.8457 12.6881C54.1149 12.0438 54.4772 11.5027 54.9327 11.0649C55.3948 10.6274 55.9433 10.2962 56.5782 10.0715C57.2131 9.8467 57.9136 9.74763 58.6798 9.77426ZM58.3787 18.439C59.2315 18.4687 59.8711 18.204 60.2974 17.6452C60.7304 17.0865 60.9661 16.2542 61.0046 15.1482C61.043 14.0422 60.8657 13.1922 60.4728 12.5982C60.0865 12.0045 59.467 11.6928 58.6142 11.6631C57.748 11.633 57.0949 11.9038 56.6548 12.4756C56.2215 13.0409 55.9858 13.8732 55.9476 14.9725C55.9094 16.0718 56.0868 16.9185 56.4797 17.5125C56.8796 18.1001 57.5126 18.4089 58.3787 18.439Z" fill="white"/>
<path d="M68.0614 18.7079C68.2181 19.1195 68.4289 19.4439 68.6937 19.6809C68.9649 19.92 69.2837 20.1013 69.6501 20.2249C70.0039 20.3441 70.3453 20.3853 70.6743 20.3485C71.0033 20.3116 71.3115 20.1904 71.5989 19.9848C71.8926 19.7813 72.1624 19.4923 72.4082 19.1179C72.6561 18.7371 72.8749 18.2656 73.0644 17.7034C73.256 17.1348 73.3705 16.6387 73.4078 16.2151C73.4535 15.7873 73.4326 15.4214 73.3451 15.1176C73.2576 14.8137 73.1098 14.5634 72.9017 14.3666C72.7 14.172 72.4444 14.0225 72.1348 13.9181C71.6484 13.7542 71.1994 13.7189 70.788 13.8124C70.3787 13.8996 69.9597 14.0784 69.5308 14.3489L68.0614 18.7079ZM69.9187 12.7912C70.4679 12.4768 71.042 12.2658 71.6411 12.1582C72.2402 12.0506 72.8809 12.1118 73.5632 12.3418C74.0938 12.5207 74.5398 12.7942 74.9012 13.1622C75.2689 13.5324 75.5393 13.9823 75.7125 14.5121C75.8942 15.0376 75.9659 15.6387 75.9278 16.3153C75.8981 16.9877 75.7491 17.7219 75.4808 18.5179C75.2359 19.2444 74.9112 19.8842 74.5067 20.4373C74.1021 20.9904 73.64 21.4326 73.1203 21.764C72.6068 22.0974 72.0475 22.3064 71.4421 22.3907C70.8452 22.471 70.2278 22.4035 69.5897 22.1884C69.0464 22.0053 68.6098 21.7666 68.2798 21.4725C67.9519 21.172 67.6864 20.8222 67.4832 20.4231L66.1416 24.4031L63.801 23.6141L68.1485 10.7171L69.5794 11.1994C69.8826 11.3016 70.0337 11.5109 70.0326 11.8271L69.9187 12.7912Z" fill="white"/>
<path d="M75.0524 23.2852L81.4743 15.2836L82.6519 16.2287C82.9015 16.429 82.9714 16.6774 82.8616 16.974L82.5107 17.6668C82.7762 17.6235 83.0366 17.5974 83.2917 17.5884C83.5519 17.5836 83.8054 17.6033 84.0521 17.6474C84.304 17.6957 84.5496 17.7731 84.7889 17.8797C85.0376 17.9852 85.2815 18.134 85.5207 18.3259C86.025 18.7307 86.3278 19.2002 86.429 19.7345C86.5395 20.2677 86.4939 20.8252 86.292 21.4069C86.6296 21.2419 86.9671 21.1409 87.3045 21.1039C87.6461 21.0618 87.9766 21.0706 88.2962 21.1305C88.6157 21.1903 88.9232 21.2918 89.2187 21.4349C89.5193 21.5822 89.7971 21.758 90.0518 21.9625C90.4938 22.3172 90.8321 22.6998 91.0667 23.1104C91.3014 23.521 91.4314 23.9502 91.4567 24.3979C91.482 24.8456 91.4043 25.3047 91.2234 25.775C91.0477 26.2495 90.7659 26.7285 90.3778 27.212L86.2906 32.3047L84.3642 30.7587L88.4515 25.666C88.8604 25.1565 89.0553 24.6846 89.0362 24.2504C89.0213 23.811 88.7981 23.4182 88.3665 23.0718C88.169 22.9133 87.9573 22.7989 87.7314 22.7288C87.5108 22.6629 87.2834 22.6427 87.0491 22.6684C86.8241 22.693 86.5981 22.7723 86.3709 22.9063C86.1437 23.0402 85.93 23.232 85.7297 23.4816L81.6424 28.5742L79.7083 27.022L83.7955 21.9293C84.2253 21.3938 84.4291 20.9162 84.4069 20.4966C84.3898 20.0811 84.1733 19.7065 83.7574 19.3727C83.4766 19.1473 83.1577 19.0068 82.8007 18.9511C82.453 18.8943 82.0792 18.902 81.6793 18.9743L76.9787 24.8313L75.0524 23.2852Z" fill="white"/>
<path d="M96.2206 36.0766C96.4925 35.9078 96.7227 35.7099 96.9114 35.4829C97.1092 35.258 97.2512 35.0129 97.3375 34.7474C97.4238 34.482 97.4441 34.1987 97.3983 33.8975C97.3618 33.5985 97.2468 33.2932 97.0534 32.9817C96.6771 32.3757 96.2072 32.0043 95.6437 31.8677C95.0837 31.7367 94.4566 31.82 93.7625 32.1176L96.2206 36.0766ZM92.4703 32.8611C92.0439 33.1729 91.7052 33.4931 91.4541 33.8216C91.2086 34.1467 91.0416 34.478 90.9529 34.8155C90.87 35.1495 90.8608 35.4887 90.9255 35.833C90.9994 36.1795 91.1419 36.5227 91.3529 36.8625C91.5639 37.2023 91.7846 37.4694 92.0151 37.6637C92.2491 37.8636 92.4706 38.0244 92.6794 38.1458C92.8917 38.2729 93.0797 38.3798 93.2434 38.4665C93.4106 38.5589 93.5347 38.6702 93.6155 38.8005C93.7246 38.9761 93.7403 39.1468 93.6628 39.3126L93.2727 40.3905C92.8567 40.3271 92.4655 40.209 92.0993 40.0362C91.7387 39.8599 91.4033 39.6483 91.0931 39.4015C90.7921 39.1568 90.5169 38.8843 90.2676 38.5839C90.0219 38.2892 89.8041 37.9889 89.6142 37.6831C89.2379 37.0771 88.9871 36.452 88.8618 35.8078C88.7422 35.1602 88.7582 34.5225 88.9098 33.8947C89.0672 33.2634 89.3661 32.6579 89.8067 32.0784C90.2529 31.4953 90.8583 30.9663 91.6229 30.4916C92.2176 30.1224 92.8353 29.8723 93.4759 29.7413C94.1222 29.6068 94.7487 29.5984 95.3553 29.7161C95.9712 29.8359 96.5524 30.0832 97.099 30.458C97.649 30.8383 98.1263 31.3542 98.5307 32.0055C98.8718 32.5549 99.0988 33.1163 99.2116 33.6898C99.3243 34.2632 99.3146 34.8225 99.1822 35.3677C99.0555 35.9093 98.8039 36.4266 98.4272 36.9194C98.0596 37.4144 97.5615 37.8571 96.9329 38.2474C96.6157 38.4443 96.3794 38.544 96.2239 38.5464C96.0741 38.5452 95.9394 38.4484 95.8198 38.2558L92.4703 32.8611Z" fill="white"/>
<path d="M102.145 42.4006C102.4 42.5441 102.641 42.7017 102.869 42.8734C103.105 43.0497 103.315 43.2438 103.499 43.4555C103.691 43.6719 103.858 43.9124 104.001 44.177C104.151 44.4398 104.272 44.7381 104.365 45.072C104.516 45.6114 104.556 46.1158 104.487 46.5851C104.423 47.0527 104.263 47.4712 104.006 47.8405C103.758 48.2144 103.422 48.5366 102.999 48.8069C102.585 49.0818 102.101 49.2964 101.549 49.4505L95.2593 51.2063L94.5952 48.8272L100.885 47.0715C101.488 46.903 101.915 46.635 102.166 46.2675C102.423 45.8981 102.472 45.431 102.314 44.8659C102.2 44.4549 101.999 44.0957 101.712 43.7881C101.426 43.4804 101.077 43.2109 100.666 42.9795L93.5197 44.9745L92.8556 42.5955L102.738 39.8369L103.144 41.2912C103.23 41.5995 103.142 41.8421 102.88 42.019L102.145 42.4006Z" fill="white"/>
<path d="M95.5135 56.7619C95.4928 55.8688 95.7268 55.1765 96.2156 54.685C96.7112 54.2001 97.4022 53.9474 98.2886 53.9268L104.017 53.7941L103.993 52.7444C103.99 52.6111 104.03 52.4968 104.115 52.4015C104.199 52.3062 104.328 52.2565 104.501 52.2525L105.481 52.2298L105.789 53.8731L108.601 54.3281C108.735 54.3584 108.839 54.4193 108.915 54.5109C108.99 54.6025 109.03 54.7216 109.033 54.8683L109.063 56.1479L105.834 56.2227L105.897 58.962L104.138 59.0027L104.074 56.2635L98.5157 56.3922C98.1958 56.3996 97.9477 56.4821 97.7713 56.6395C97.595 56.8037 97.5101 57.0224 97.5164 57.2956C97.5199 57.4489 97.5395 57.5752 97.5752 57.6744C97.6176 57.7801 97.6597 57.8691 97.7014 57.9415C97.7432 58.0206 97.7815 58.0897 97.8162 58.1489C97.8576 58.208 97.879 58.2675 97.8804 58.3275C97.8821 58.4008 97.8635 58.4612 97.8246 58.5088C97.7923 58.5562 97.7402 58.6074 97.6681 58.6625L96.4855 59.4301C96.1773 59.0771 95.9411 58.6691 95.777 58.2061C95.6129 57.7431 95.5251 57.2617 95.5135 56.7619Z" fill="white"/>
<path d="M57.19 47.36L50.19 50.47C49.47 50.79 49 51.51 49 52.3V57C49 62.55 52.84 67.74 58 69C63.16 67.74 67 62.55 67 57V52.3C67 51.51 66.53 50.79 65.81 50.47L58.81 47.36C58.3 47.13 57.7 47.13 57.19 47.36V47.36ZM58 57.99H65C64.47 62.11 61.72 65.78 58 66.93V58H51V52.3L58 49.19V57.99Z" fill="white"/>
</svg>
