<svg width="18" height="18" viewBox="0 0 18 18" fill="none" xmlns="http://www.w3.org/2000/svg">
<path d="M16.8734 1.13789C16.3859 0.650391 15.5984 0.650391 15.1109 1.13789L8.99844 7.23789L2.88594 1.12539C2.39844 0.637891 1.61094 0.637891 1.12344 1.12539C0.635938 1.61289 0.635938 2.40039 1.12344 2.88789L7.23594 9.00039L1.12344 15.1129C0.635938 15.6004 0.635938 16.3879 1.12344 16.8754C1.61094 17.3629 2.39844 17.3629 2.88594 16.8754L8.99844 10.7629L15.1109 16.8754C15.5984 17.3629 16.3859 17.3629 16.8734 16.8754C17.3609 16.3879 17.3609 15.6004 16.8734 15.1129L10.7609 9.00039L16.8734 2.88789C17.3484 2.41289 17.3484 1.61289 16.8734 1.13789Z" fill="#546E7A"/>
</svg>
