<svg width="96" height="66" viewBox="0 0 96 66" fill="none" xmlns="http://www.w3.org/2000/svg">
<path d="M0 0H96V66L0 0Z" fill="#18C9BF"/>
<path d="M72.272 24.7197L66.272 18.7197C66.032 18.4797 65.6987 18.333 65.332 18.333H60.6654C59.932 18.333 59.332 18.933 59.332 19.6663V24.333C59.332 24.6997 59.4787 25.033 59.7254 25.2797L65.7254 31.2797C65.9654 31.5197 66.2987 31.6663 66.6654 31.6663C67.032 31.6663 67.3654 31.5197 67.6054 31.273L72.272 26.6063C72.5187 26.3663 72.6654 26.033 72.6654 25.6663C72.6654 25.2997 72.512 24.9597 72.272 24.7197ZM61.6654 21.6663C61.112 21.6663 60.6654 21.2197 60.6654 20.6663C60.6654 20.113 61.112 19.6663 61.6654 19.6663C62.2187 19.6663 62.6654 20.113 62.6654 20.6663C62.6654 21.2197 62.2187 21.6663 61.6654 21.6663Z" fill="white"/>
</svg>
