<svg width="696" height="6" viewBox="0 0 696 6" fill="none" xmlns="http://www.w3.org/2000/svg">
<path d="M0.333333 3C0.333333 4.47276 1.52724 5.66667 3 5.66667C4.47276 5.66667 5.66667 4.47276 5.66667 3C5.66667 1.52724 4.47276 0.333333 3 0.333333C1.52724 0.333333 0.333333 1.52724 0.333333 3ZM43 3.5C43.2761 3.5 43.5 3.27614 43.5 3C43.5 2.72386 43.2761 2.5 43 2.5V3.5ZM3 3.5H43V2.5H3V3.5Z" fill="#4946FF"/>
<path d="M173 3.5C173.276 3.5 173.5 3.27614 173.5 3C173.5 2.72386 173.276 2.5 173 2.5V3.5ZM133 3.5H173V2.5H133V3.5Z" fill="#0B09AE"/>
<path d="M303 3.5C303.276 3.5 303.5 3.27614 303.5 3C303.5 2.72386 303.276 2.5 303 2.5V3.5ZM263 3.5H303V2.5H263V3.5Z" fill="#0B09AE"/>
<path d="M433 3.5C433.276 3.5 433.5 3.27614 433.5 3C433.5 2.72386 433.276 2.5 433 2.5V3.5ZM393 3.5H433V2.5H393V3.5Z" fill="#0B09AE"/>
<path d="M563 3.5C563.276 3.5 563.5 3.27614 563.5 3C563.5 2.72386 563.276 2.5 563 2.5V3.5ZM523 3.5H563V2.5H523V3.5Z" fill="#0B09AE"/>
<path d="M653 2.5C652.724 2.5 652.5 2.72386 652.5 3C652.5 3.27614 652.724 3.5 653 3.5V2.5ZM690.333 3C690.333 4.47276 691.527 5.66667 693 5.66667C694.473 5.66667 695.667 4.47276 695.667 3C695.667 1.52724 694.473 0.333333 693 0.333333C691.527 0.333333 690.333 1.52724 690.333 3ZM653 3.5H693V2.5H653V3.5Z" fill="#4946FF"/>
</svg>
