<svg width="64" height="64" viewBox="0 0 64 64" fill="none" xmlns="http://www.w3.org/2000/svg">
<path fillRule="evenodd" clipRule="evenodd" d="M23.9621 55.4807V60.0069L7.98736 54.0831V34.1145C7.58799 33.3823 6.98894 32.6502 6.45645 32.1177C5.45802 31.1192 4.19337 30.6533 2.66245 30.5868H0V25.2619H2.66245C4.06025 25.2619 5.45802 24.7294 6.45645 23.7309C7.45488 22.7325 7.98736 21.4013 7.98736 19.9369V9.15401C7.98736 7.75621 8.51985 6.35843 9.51828 5.36001C10.5167 4.36159 11.9145 3.8291 13.3123 3.8291H18.6372V9.15401H13.3123V22.4663C13.3123 23.8641 12.7798 25.2619 11.7814 26.2603C10.7829 27.2587 9.45171 27.7912 7.98736 27.7912C9.38516 27.7912 10.7829 28.3237 11.7814 29.3221C12.7798 30.3205 13.046 31.7183 13.046 33.1162V40.7708L13.1126 50.8215L23.9621 54.4156V55.4807Z" fill="#18C9BF"/>
<path fillRule="evenodd" clipRule="evenodd" d="M39.9297 54.4156L50.7791 50.9544L50.8458 40.9037V33.1827C50.8458 31.7848 51.1119 30.3871 52.1105 29.3886C53.1088 28.3902 54.4399 27.8577 55.9045 27.8577C54.5066 27.8577 53.1088 27.3253 52.1105 26.3268C51.1119 25.3284 50.5794 23.9306 50.5794 22.4663V9.15401H45.2545V3.8291H50.5794C51.9773 3.8291 53.3752 4.36159 54.3734 5.36001C55.372 6.35843 55.9045 7.75621 55.9045 9.15401V19.8038C55.9045 21.2016 56.4368 22.5994 57.4353 23.5978C58.4336 24.5962 59.765 25.1287 61.2294 25.1287H63.8917V30.4536H61.2294C59.765 30.5202 58.4336 30.9861 57.4353 31.9845C56.8364 32.5837 56.3038 33.2491 55.9045 33.9813V53.9499L39.9297 59.8737V55.3475V54.4156Z" fill="#5552FE"/>
<path d="M22.5 39.7726V32.9834L24.5634 34.1149V38.5079L31.9516 42.7013L39.34 38.5079V34.1149L41.4034 32.9834V39.7726L31.9516 45.0974L22.5 39.7726Z" fill="#18C9BF"/>
<path d="M17.1719 27.9244V26.1272L31.9484 18.4727L46.725 26.1272V34.9133H44.5952V29.1225L31.9484 36.1115L17.1719 27.9244ZM19.9674 27.0591L31.9484 33.7153L43.9295 27.0591L31.9484 20.8689L19.9674 27.0591Z" fill="#5552FE"/>
</svg>
