<svg width="120" height="120" viewBox="0 0 120 120" fill="none" xmlns="http://www.w3.org/2000/svg">
<g filter="url(#filter0_d_869_1365)">
<path d="M82 56C82 68.1503 72.1503 78 60 78C47.8497 78 38 68.1503 38 56C38 43.8497 47.8497 34 60 34C72.1503 34 82 43.8497 82 56Z" fill="#4946FF" stroke="#18C9BF" stroke-width="16"/>
<path d="M43.8038 39.5852C43.3239 39.0824 42.5246 39.0617 42.0474 39.567C39.7501 41.9991 37.976 44.8825 36.841 48.0392C35.5638 51.5912 35.1308 55.3916 35.5762 59.1399C36.0216 62.8881 37.3332 66.4813 39.4072 69.635C41.2504 72.4378 43.6508 74.8252 46.4541 76.6512C47.0364 77.0305 47.8086 76.8231 48.1573 76.2219C48.506 75.6207 48.299 74.8537 47.719 74.4709C45.2525 72.8432 43.1387 70.7285 41.5101 68.2521C39.6507 65.4247 38.4748 62.2033 38.0755 58.8429C37.6762 55.4825 38.0644 52.0753 39.2094 48.8908C40.2123 46.1017 41.7716 43.5506 43.788 41.3902C44.2622 40.8821 44.2837 40.0879 43.8038 39.5852Z" fill="#4946FF"/>
<path d="M55.6752 36.9354L54.6255 37.3383C54.5078 37.3834 54.3992 37.3923 54.2999 37.3648C54.2027 37.3326 54.1204 37.2793 54.0532 37.2047L52.9368 35.9252L49.914 37.0854L49.9403 38.7833C49.9431 38.871 49.9164 38.9623 49.8602 39.0572C49.8073 39.1508 49.7237 39.2196 49.6093 39.2635L48.5546 39.6683L48.6203 31.271L50.0081 30.7383L55.6752 36.9354ZM49.8942 35.9929L52.2206 35.1L50.4008 33.0135C50.3191 32.9214 50.2252 32.8127 50.1193 32.6874C50.0153 32.5574 49.9069 32.4157 49.794 32.2622C49.8127 32.4518 49.8269 32.6297 49.8367 32.7958C49.8497 32.9606 49.8557 33.107 49.8546 33.2348L49.8942 35.9929Z" fill="white"/>
<path d="M56.352 36.9071L55.9492 28.8848L57.2827 28.8178L57.4415 31.9814C57.6493 31.7364 57.8883 31.5386 58.1586 31.3879C58.4287 31.2337 58.7491 31.1472 59.1198 31.1286C59.4221 31.1134 59.7006 31.1626 59.9552 31.2761C60.2133 31.3858 60.4383 31.5549 60.6302 31.7834C60.8257 32.0117 60.9808 32.298 61.0955 32.6423C61.2138 32.9863 61.2843 33.3851 61.3071 33.8386C61.3278 34.2524 61.2913 34.6385 61.1974 34.9969C61.1036 35.3552 60.9588 35.6691 60.763 35.9387C60.5709 36.2082 60.331 36.4241 60.0433 36.5865C59.759 36.7451 59.4351 36.8335 59.0716 36.8517C58.9024 36.8602 58.7467 36.85 58.6046 36.8211C58.4626 36.7957 58.3325 36.7553 58.2142 36.6999C58.096 36.6445 57.9843 36.5762 57.8792 36.4949C57.7775 36.4098 57.679 36.3155 57.5836 36.212L57.5429 36.5875C57.526 36.6822 57.4915 36.7507 57.4395 36.793C57.3911 36.8351 57.3219 36.8584 57.232 36.8629L56.352 36.9071ZM58.7129 32.1882C58.4358 32.2021 58.2013 32.2734 58.0093 32.4021C57.8207 32.527 57.6472 32.6999 57.4887 32.9208L57.6134 35.4041C57.7739 35.5837 57.9443 35.7068 58.1244 35.7735C58.308 35.8365 58.5041 35.8627 58.7129 35.8522C58.9144 35.8421 59.0943 35.7952 59.2524 35.7115C59.4106 35.6278 59.5416 35.5058 59.6454 35.3454C59.7528 35.1848 59.8312 34.9861 59.8807 34.7491C59.9299 34.5085 59.9465 34.228 59.9304 33.9077C59.9142 33.5838 59.8734 33.3116 59.8082 33.0911C59.7465 32.8669 59.6635 32.6871 59.5593 32.5516C59.455 32.4161 59.3311 32.3195 59.1875 32.2618C59.0475 32.2039 58.8893 32.1793 58.7129 32.1882Z" fill="white"/>
<path d="M62.0348 36.7471L63.6602 28.8809L64.9677 29.151L64.3431 32.1737C64.5964 32.0163 64.8629 31.902 65.1425 31.831C65.4221 31.76 65.7331 31.7599 66.0754 31.8306C66.3719 31.8918 66.6242 31.9973 66.8324 32.1471C67.0414 32.2933 67.2028 32.4738 67.3167 32.6887C67.4347 32.9008 67.5064 33.1419 67.5315 33.412C67.5609 33.6793 67.5442 33.9647 67.4815 34.2682L66.7673 37.725L65.4598 37.4548L66.174 33.9981C66.2426 33.6663 66.2178 33.3945 66.0997 33.1824C65.9859 32.9675 65.7754 32.8284 65.4684 32.7649C65.2425 32.7183 65.0202 32.7257 64.8014 32.7872C64.5827 32.8487 64.3668 32.9495 64.1539 33.0894L63.3424 37.0173L62.0348 36.7471Z" fill="white"/>
<path d="M70.3144 33.3583L68.1349 38.4581L66.9072 37.9334L69.0867 32.8336L70.3144 33.3583ZM71.1335 31.9507C71.0882 32.0568 71.0241 32.147 70.9414 32.2214C70.8587 32.2957 70.766 32.3521 70.6634 32.3906C70.564 32.4304 70.4571 32.4513 70.3426 32.4534C70.2295 32.452 70.1183 32.428 70.0089 32.3813C69.9029 32.336 69.8103 32.2729 69.7312 32.1921C69.6569 32.1093 69.5998 32.0183 69.5599 31.919C69.5201 31.8197 69.4984 31.7144 69.495 31.6032C69.4949 31.4934 69.5175 31.3855 69.5628 31.2795C69.6095 31.1701 69.6733 31.0759 69.7542 30.9968C69.8383 30.9191 69.93 30.8603 70.0294 30.8205C70.1287 30.7807 70.2332 30.7607 70.343 30.7606C70.4575 30.7586 70.5678 30.7802 70.6738 30.8255C70.7832 30.8723 70.8767 30.9377 70.9544 31.0218C71.0335 31.1027 71.093 31.1928 71.1328 31.2921C71.176 31.3928 71.1986 31.5005 71.2006 31.615C71.2026 31.7295 71.1802 31.8414 71.1335 31.9507Z" fill="white"/>
<path d="M69.7045 39.0399L72.934 34.5312L73.5976 35.0066C73.7382 35.1073 73.7832 35.2393 73.7328 35.4026L73.5525 35.8121C73.7105 35.7834 73.8665 35.7666 74.0207 35.7618C74.1778 35.7591 74.3319 35.7697 74.4831 35.7938C74.6373 35.82 74.7893 35.8646 74.9391 35.9276C75.089 35.9907 75.2401 36.0768 75.3925 36.1859C75.6386 36.3622 75.8264 36.561 75.956 36.7823C76.0876 37.0008 76.1619 37.2313 76.1787 37.4738C76.2006 37.7156 76.1682 37.965 76.0816 38.2221C76 38.4783 75.8689 38.7324 75.6885 38.9844L73.633 41.8539L72.5476 41.0764L74.6031 38.2069C74.8003 37.9315 74.888 37.673 74.8661 37.4312C74.8493 37.1887 74.7134 36.9761 74.4585 36.7935C74.2711 36.6592 74.0649 36.5758 73.8399 36.5432C73.615 36.5107 73.3769 36.5152 73.1255 36.5567L70.7899 39.8173L69.7045 39.0399Z" fill="white"/>
<path d="M76.8794 45.6578L76.5056 45.1885C76.427 45.0899 76.3793 45.0011 76.3626 44.9223C76.3487 44.8412 76.3756 44.7507 76.4434 44.6506L76.6779 44.3118C76.4917 44.2804 76.3179 44.2415 76.1564 44.195C76.0001 44.1491 75.8516 44.09 75.7111 44.0177C75.5705 43.9453 75.4371 43.8559 75.3106 43.7492C75.1842 43.6426 75.0593 43.5118 74.9358 43.3568C74.7899 43.1735 74.6791 42.9853 74.6035 42.7922C74.5308 42.5967 74.4988 42.4033 74.5076 42.212C74.5187 42.0235 74.5729 41.8398 74.67 41.6611C74.7672 41.4823 74.913 41.3155 75.1075 41.1605C75.271 41.0303 75.4653 40.9446 75.6905 40.9034C75.9208 40.8628 76.1791 40.8921 76.4653 40.9912C76.7544 41.088 77.0737 41.269 77.4232 41.5343C77.7727 41.7995 78.1495 42.1743 78.5537 42.6585L78.8074 42.4565C79.0977 42.2252 79.2625 41.9925 79.3019 41.7585C79.3462 41.525 79.2753 41.2913 79.0889 41.0574C78.9542 40.8883 78.8222 40.7631 78.6929 40.6817C78.5636 40.6004 78.44 40.5377 78.3219 40.4936C78.2088 40.45 78.1045 40.4087 78.0089 40.3697C77.9133 40.3306 77.8319 40.2688 77.7645 40.1843C77.7084 40.1138 77.6784 40.0386 77.6746 39.9587C77.6709 39.8788 77.6834 39.802 77.7123 39.7283L77.8947 39.272C78.7487 39.4071 79.4564 39.827 80.0177 40.5317C80.2198 40.7854 80.3572 41.0445 80.4298 41.3092C80.5075 41.5744 80.5266 41.8356 80.4872 42.0927C80.4507 42.3476 80.3576 42.5922 80.208 42.8266C80.0606 43.0638 79.8643 43.28 79.6191 43.4754L76.8794 45.6578ZM75.9139 43.1098C75.9992 43.2169 76.0877 43.3077 76.1792 43.3821C76.2708 43.4566 76.3678 43.5176 76.4701 43.5651C76.5747 43.6154 76.6843 43.6547 76.7991 43.6831C76.9189 43.7121 77.0486 43.7332 77.1881 43.7464L77.9195 43.1637C77.663 42.8705 77.433 42.6368 77.2296 42.4625C77.0313 42.2887 76.8532 42.1634 76.6952 42.0865C76.5372 42.0097 76.3974 41.9759 76.2758 41.9852C76.1565 41.9973 76.0503 42.0405 75.9573 42.1146C75.7741 42.2605 75.6857 42.4185 75.6921 42.5884C75.7007 42.7612 75.7747 42.935 75.9139 43.1098Z" fill="white"/>
<path d="M78.445 48.8476L77.9809 47.7293L82.2578 43.5664L82.6826 44.5899C82.7199 44.6797 82.7293 44.7636 82.7109 44.8415C82.6939 44.9227 82.6569 44.9887 82.6 45.0396L80.2744 47.1636C80.1381 47.2865 80.001 47.3981 79.8631 47.4982C79.7266 47.6017 79.588 47.7002 79.4473 47.7937C79.6129 47.7601 79.7798 47.7298 79.9481 47.7029C80.1178 47.6793 80.2949 47.6643 80.4796 47.6579L83.6361 47.5359C83.7123 47.5316 83.7845 47.5504 83.8526 47.5923C83.9208 47.6343 83.9721 47.6969 84.0066 47.7801L84.4107 48.7536L78.445 48.8476Z" fill="white"/>
<path d="M84.6315 65.5303C84.5678 65.4686 84.5287 65.4071 84.5141 65.3458C84.4984 65.2879 84.5014 65.2246 84.5231 65.1559C84.5448 65.0872 84.595 65.018 84.6737 64.9484C84.7559 64.8799 84.8481 64.7975 84.9503 64.7014C85.0525 64.6052 85.1544 64.4862 85.2559 64.3445C85.3598 64.2072 85.4454 64.0321 85.5127 63.8191C85.5736 63.6267 85.6028 63.4507 85.6003 63.2912C85.6002 63.1362 85.5746 62.9958 85.5237 62.8701C85.4716 62.7478 85.3948 62.6442 85.2932 62.5591C85.195 62.4752 85.0772 62.4115 84.9398 62.368C84.7646 62.3126 84.6033 62.3145 84.4561 62.3738C84.3078 62.4365 84.1668 62.5355 84.0333 62.6709C83.8998 62.8064 83.7678 62.9668 83.6373 63.1523C83.5068 63.3378 83.3701 63.5252 83.2272 63.7143C83.0866 63.9079 82.9338 64.0921 82.769 64.2667C82.6076 64.4425 82.4258 64.5872 82.2236 64.7008C82.0247 64.8156 81.8019 64.8869 81.555 64.9146C81.307 64.9458 81.0284 64.9125 80.7192 64.8147C80.3825 64.7083 80.0849 64.5499 79.8263 64.3396C79.5701 64.1339 79.3674 63.8846 79.2181 63.5917C79.0712 63.3034 78.9847 62.9793 78.9586 62.6196C78.9359 62.2609 78.9898 61.8755 79.1202 61.4632C79.1951 61.2261 79.2931 61 79.414 60.785C79.5314 60.569 79.6668 60.368 79.8201 60.1821C79.9722 59.9997 80.1378 59.8347 80.3167 59.6872C80.4946 59.5431 80.6802 59.4223 80.8735 59.3247L81.4113 59.937C81.4474 59.99 81.4728 60.0471 81.4874 60.1084C81.5044 60.1743 81.5026 60.2398 81.4819 60.3051C81.4548 60.391 81.3894 60.4724 81.2857 60.5492C81.1855 60.6271 81.0712 60.7195 80.9429 60.8263C80.8136 60.9366 80.684 61.0714 80.5543 61.2307C80.4269 61.3945 80.3225 61.6052 80.241 61.8629C80.116 62.2581 80.1121 62.5932 80.2292 62.8683C80.3497 63.1445 80.5852 63.3381 80.9357 63.4489C81.1315 63.5108 81.3071 63.5115 81.4623 63.451C81.6164 63.3939 81.7602 63.2976 81.8937 63.1622C82.0307 63.0279 82.161 62.8669 82.2846 62.6792C82.4082 62.4915 82.538 62.302 82.6741 62.1107C82.8102 61.9195 82.9589 61.7359 83.1203 61.5602C83.2817 61.3845 83.4652 61.2403 83.6709 61.1277C83.8766 61.0151 84.1103 60.9454 84.372 60.9186C84.6361 60.8962 84.9382 60.9388 85.2783 61.0464C85.5498 61.1322 85.7975 61.2692 86.0215 61.4572C86.2444 61.6486 86.4229 61.8789 86.557 62.1481C86.69 62.4207 86.7689 62.7272 86.7935 63.0676C86.8182 63.408 86.7691 63.7723 86.6463 64.1605C86.5073 64.6003 86.3103 64.984 86.0556 65.3117C85.8008 65.6393 85.5084 65.8945 85.1784 66.0774L84.6315 65.5303Z" fill="white"/>
<path d="M78.0715 65.676L84.6016 70.3535L83.8241 71.4389L81.3149 69.6416C81.356 69.937 81.3522 70.2269 81.3037 70.5112C81.2551 70.7956 81.1291 71.0799 80.9255 71.364C80.7493 71.6101 80.5504 71.798 80.3291 71.9275C80.1107 72.0592 79.8802 72.1334 79.6376 72.1503C79.3958 72.1722 79.1464 72.1398 78.8893 72.0532C78.6331 71.9715 78.379 71.8405 78.127 71.66L75.2575 69.6046L76.035 68.5192L78.9045 70.5746C79.1799 70.7719 79.4384 70.8596 79.6802 70.8377C79.9228 70.8208 80.1353 70.685 80.3179 70.4301C80.4522 70.2426 80.5356 70.0364 80.5682 69.8115C80.6007 69.5866 80.5962 69.3484 80.5547 69.097L77.2941 66.7614L78.0715 65.676Z" fill="white"/>
<path d="M71.4601 74.1189L71.9266 73.7417C72.0247 73.6624 72.1131 73.6141 72.1918 73.5968C72.2728 73.5823 72.3635 73.6085 72.464 73.6755L72.8046 73.9076C72.8346 73.7212 72.8722 73.5471 72.9175 73.3853C72.9623 73.2286 73.0204 73.0797 73.0917 72.9387C73.163 72.7976 73.2515 72.6635 73.3572 72.5363C73.4629 72.4091 73.5928 72.2832 73.7469 72.1586C73.929 72.0113 74.1164 71.8992 74.3091 71.8222C74.504 71.748 74.6971 71.7147 74.8885 71.7221C75.0771 71.7318 75.2611 71.7846 75.4406 71.8805C75.6201 71.9764 75.788 72.121 75.9443 72.3143C76.0757 72.4768 76.1628 72.6705 76.2057 72.8954C76.2479 73.1254 76.2206 73.3839 76.1236 73.6708C76.0289 73.9606 75.8502 74.2812 75.5875 74.6326C75.3248 74.9841 74.9528 75.3636 74.4715 75.7714L74.6754 76.0236C74.9088 76.3122 75.1426 76.4753 75.3769 76.5129C75.6107 76.5556 75.8439 76.4829 76.0765 76.2948C76.2446 76.1589 76.3689 76.026 76.4492 75.8961C76.5296 75.7663 76.5914 75.6421 76.6347 75.5237C76.6774 75.4104 76.718 75.3058 76.7563 75.2099C76.7946 75.114 76.8558 75.0321 76.9399 74.9641C77.01 74.9075 77.0849 74.877 77.1648 74.8726C77.2447 74.8683 77.3216 74.8802 77.3955 74.9086L77.8531 75.0877C77.7242 75.9427 77.3095 76.6534 76.6089 77.2198C76.3567 77.4238 76.0986 77.563 75.8344 77.6375C75.5698 77.7171 75.3087 77.7382 75.0513 77.7007C74.7962 77.666 74.5509 77.5747 74.3155 77.4268C74.0772 77.2811 73.8595 77.0864 73.6624 76.8426L71.4601 74.1189ZM74.001 73.1349C73.8945 73.221 73.8044 73.3101 73.7306 73.4022C73.6568 73.4943 73.5965 73.5917 73.5498 73.6944C73.5002 73.7993 73.4617 73.9093 73.4341 74.0242C73.4061 74.1442 73.3859 74.2741 73.3737 74.4137L73.9617 75.1409C74.253 74.8822 74.485 74.6505 74.6579 74.4458C74.8302 74.2463 74.9542 74.0672 75.0299 73.9087C75.1056 73.7501 75.1384 73.6101 75.1282 73.4886C75.1152 73.3694 75.0713 73.2635 74.9965 73.171C74.8492 72.9889 74.6906 72.9016 74.5207 72.9093C74.348 72.9192 74.1748 72.9944 74.001 73.1349Z" fill="white"/>
<path d="M70.1008 75.0725L72.3183 80.1559L71.5999 80.4693C71.4744 80.524 71.3768 80.5391 71.3071 80.5144C71.2373 80.4898 71.1697 80.4249 71.1042 80.3198L70.7619 79.7379C70.7171 80.1309 70.6121 80.4716 70.447 80.7599C70.2818 81.0482 70.0473 81.2586 69.7434 81.3912C69.4924 81.5007 69.2591 81.5336 69.0435 81.4901L68.8022 80.5043C68.7862 80.4406 68.7889 80.3882 68.8104 80.3474C68.8333 80.3099 68.8729 80.2789 68.929 80.2544C68.9786 80.2328 69.0513 80.2148 69.1473 80.2004C69.2433 80.1861 69.3623 80.148 69.5043 80.086C69.7586 79.9751 69.9456 79.8089 70.0654 79.5877C70.1865 79.3697 70.2508 79.0979 70.2581 78.7723L68.8771 75.6064L70.1008 75.0725Z" fill="white"/>
<path d="M65.6658 76.6999L66.7257 82.1436L65.9245 82.2996C65.7547 82.3327 65.6278 82.2748 65.5437 82.1259L65.3803 81.7392C65.3055 81.8639 65.2254 81.9805 65.14 82.0889C65.0511 82.198 64.9545 82.2957 64.8502 82.3821C64.7423 82.4692 64.6246 82.5435 64.4971 82.6051C64.3667 82.6708 64.2202 82.7196 64.0575 82.7512C63.7144 82.818 63.4149 82.7791 63.1591 82.6343C62.9004 82.4937 62.6863 82.2803 62.5168 81.9939C62.467 82.1908 62.3908 82.3653 62.2883 82.5175C62.1864 82.6731 62.0674 82.8065 61.9311 82.9174C61.7949 83.0284 61.6456 83.1199 61.4834 83.1918C61.3177 83.2645 61.1481 83.3177 60.9748 83.3514C60.6741 83.41 60.3981 83.416 60.1468 83.3695C59.8954 83.323 59.6729 83.2268 59.4793 83.0809C59.2857 82.935 59.1234 82.7427 58.9925 82.5038C58.858 82.2657 58.7588 81.9821 58.6947 81.6532L58.0201 78.1885L59.3307 77.9333L60.0052 81.398C60.0727 81.7447 60.1994 81.9898 60.3852 82.1335C60.5718 82.2808 60.8118 82.3258 61.1054 82.2687C61.2398 82.2425 61.3609 82.1951 61.4687 82.1263C61.5729 82.0583 61.6607 81.9715 61.7319 81.8658C61.8002 81.7644 61.8464 81.6435 61.8705 81.5029C61.8945 81.3624 61.89 81.2073 61.857 81.0375L61.1824 77.5728L62.4982 77.3166L63.1728 80.7813C63.2437 81.1456 63.3697 81.3964 63.5506 81.5338C63.728 81.6718 63.9599 81.7129 64.2464 81.6571C64.4339 81.6206 64.6015 81.5384 64.7491 81.4106C64.8939 81.2869 65.0212 81.13 65.131 80.9397L64.3552 76.9551L65.6658 76.6999Z" fill="white"/>
<path d="M52.753 76.2706L53.3215 76.4623C53.4411 76.5026 53.5292 76.5513 53.586 76.6085C53.6416 76.669 53.6681 76.7597 53.6654 76.8805L53.6521 77.2924C53.8255 77.2178 53.9927 77.1563 54.1535 77.1078C54.3098 77.0616 54.4666 77.0308 54.6239 77.0154C54.7812 76.9999 54.9419 77.0028 55.1059 77.0238C55.2699 77.0449 55.4459 77.0871 55.6337 77.1504C55.8556 77.2252 56.0507 77.3233 56.219 77.4447C56.3861 77.5694 56.5178 77.7146 56.6141 77.8802C56.707 78.0446 56.761 78.2282 56.7763 78.4311C56.7916 78.634 56.7595 78.8533 56.6801 79.0889C56.6133 79.287 56.4965 79.4643 56.3296 79.621C56.1581 79.78 55.9252 79.8955 55.631 79.9674C55.3356 80.0427 54.9692 80.0637 54.5317 80.0303C54.0942 79.997 53.5744 79.8864 52.9722 79.6986L52.8686 80.0059C52.75 80.3577 52.7376 80.6425 52.8315 80.8605C52.9208 81.0807 53.1071 81.2386 53.3906 81.3341C53.5954 81.4032 53.7742 81.4369 53.9269 81.4351C54.0797 81.4333 54.2176 81.419 54.3408 81.3921C54.4594 81.3674 54.5694 81.3455 54.6709 81.3265C54.7724 81.3075 54.8743 81.3152 54.9768 81.3498C55.0621 81.3785 55.1281 81.4255 55.1746 81.4906C55.2211 81.5557 55.2522 81.627 55.2679 81.7046L55.362 82.1869C54.5711 82.5364 53.7488 82.5672 52.8951 82.2795C52.5877 82.1759 52.3318 82.0325 52.1273 81.8495C51.9182 81.6688 51.7606 81.4597 51.6542 81.2223C51.5468 80.9883 51.4924 80.7323 51.491 80.4543C51.4863 80.175 51.534 79.8869 51.6341 79.5898L52.753 76.2706ZM54.9457 77.8882C54.816 77.8445 54.6924 77.8161 54.5751 77.8032C54.4578 77.7903 54.3432 77.7916 54.2315 77.8072C54.1163 77.8216 54.0029 77.848 53.8911 77.8864C53.7747 77.927 53.6543 77.9796 53.5299 78.0441L53.2312 78.9303C53.6057 79.0375 53.9257 79.1092 54.1911 79.1455C54.4519 79.184 54.6695 79.1927 54.844 79.1716C55.0184 79.1505 55.1542 79.1031 55.2513 79.0294C55.345 78.9545 55.4108 78.8607 55.4488 78.748C55.5236 78.5261 55.5123 78.3454 55.4147 78.206C55.3138 78.0655 55.1574 77.9596 54.9457 77.8882Z" fill="white"/>
</g>
<defs>
<filter id="filter0_d_869_1365" x="0" y="0" width="120" height="120" filterUnits="userSpaceOnUse" color-interpolation-filters="sRGB">
<feFlood flood-opacity="0" result="BackgroundImageFix"/>
<feColorMatrix in="SourceAlpha" type="matrix" values="0 0 0 0 0 0 0 0 0 0 0 0 0 0 0 0 0 0 127 0" result="hardAlpha"/>
<feOffset dy="4"/>
<feGaussianBlur stdDeviation="15"/>
<feComposite in2="hardAlpha" operator="out"/>
<feColorMatrix type="matrix" values="0 0 0 0 0.0941176 0 0 0 0 0.788235 0 0 0 0 0.74902 0 0 0 0.45 0"/>
<feBlend mode="normal" in2="BackgroundImageFix" result="effect1_dropShadow_869_1365"/>
<feBlend mode="normal" in="SourceGraphic" in2="effect1_dropShadow_869_1365" result="shape"/>
</filter>
</defs>
</svg>
