<svg width="62" height="36" viewBox="0 0 62 36" fill="none" xmlns="http://www.w3.org/2000/svg">
<path d="M0 0H62V36L0 0Z" fill="#18C9BF"/>
<path d="M50.272 14.7197L44.272 8.71967C44.032 8.47967 43.6987 8.33301 43.332 8.33301H38.6654C37.932 8.33301 37.332 8.93301 37.332 9.66634V14.333C37.332 14.6997 37.4787 15.033 37.7254 15.2797L43.7254 21.2797C43.9654 21.5197 44.2987 21.6663 44.6654 21.6663C45.032 21.6663 45.3654 21.5197 45.6054 21.273L50.272 16.6063C50.5187 16.3663 50.6654 16.033 50.6654 15.6663C50.6654 15.2997 50.512 14.9597 50.272 14.7197ZM39.6654 11.6663C39.112 11.6663 38.6654 11.2197 38.6654 10.6663C38.6654 10.113 39.112 9.66634 39.6654 9.66634C40.2187 9.66634 40.6654 10.113 40.6654 10.6663C40.6654 11.2197 40.2187 11.6663 39.6654 11.6663Z" fill="white"/>
</svg>
