<svg width="12" height="12" viewBox="0 0 12 12" fill="none" xmlns="http://www.w3.org/2000/svg">
<path d="M11.0013 6.83366H6.83464V11.0003C6.83464 11.4587 6.45964 11.8337 6.0013 11.8337C5.54297 11.8337 5.16797 11.4587 5.16797 11.0003V6.83366H1.0013C0.542969 6.83366 0.167969 6.45866 0.167969 6.00033C0.167969 5.54199 0.542969 5.16699 1.0013 5.16699H5.16797V1.00033C5.16797 0.541992 5.54297 0.166992 6.0013 0.166992C6.45964 0.166992 6.83464 0.541992 6.83464 1.00033V5.16699H11.0013C11.4596 5.16699 11.8346 5.54199 11.8346 6.00033C11.8346 6.45866 11.4596 6.83366 11.0013 6.83366Z" fill="#18C9BF"/>
</svg>
