<svg width="10" height="10" viewBox="0 0 10 10" fill="none" xmlns="http://www.w3.org/2000/svg">
<path d="M0.274063 1.03285C-0.0184375 1.32535 -0.0184375 1.79785 0.274063 2.09035L3.18406 5.00035L0.274063 7.91035C-0.0184375 8.20285 -0.0184375 8.67535 0.274063 8.96785C0.566563 9.26035 1.03906 9.26035 1.33156 8.96785L4.77406 5.52535C5.06656 5.23285 5.06656 4.76035 4.77406 4.46785L1.33906 1.03285C1.04656 0.740352 0.566563 0.740352 0.274063 1.03285Z" fill="#CFD8DC"/>
<path d="M5.21547 1.03282C4.92297 1.32532 4.92297 1.79782 5.21547 2.09032L8.12547 5.00032L5.21547 7.91032C4.92297 8.20282 4.92297 8.67532 5.21547 8.96782C5.50797 9.26032 5.98047 9.26032 6.27297 8.96782L9.71547 5.52532C10.008 5.23282 10.008 4.76032 9.71547 4.46782L6.27297 1.02532C5.98797 0.740322 5.50797 0.740322 5.21547 1.03282Z" fill="#CFD8DC"/>
</svg>
